<svg width="900" height="1098" viewBox="0 0 900 1098" fill="none" xmlns="http://www.w3.org/2000/svg">
<path fill-rule="evenodd" clip-rule="evenodd" d="M352.855 3.13871C353.641 1.96288 355.214 0 355.214 0C357.181 0.787087 359.937 1.95266 360.724 3.52684C363.873 10.2108 365.84 17.6815 364.267 25.1522C363.48 29.4773 365.446 33.0222 368.593 35.7722C370.953 38.1316 373.703 40.8848 375.67 44.0284C376.85 45.9942 377.247 49.1445 376.854 51.5009C376.067 53.8622 373.312 54.6585 370.952 55.0424L370.725 55.0651C366.867 55.4509 363.014 55.8361 359.541 56.6081C358.754 56.6081 357.966 57.7928 357.966 58.9735L354.431 79.0243C354.038 81.7791 352.459 83.3579 349.705 83.7419C347.139 84.1086 345.943 82.0881 344.837 80.2187C344.756 80.0821 344.676 79.9463 344.595 79.8123C343.423 77.7646 341.815 75.9298 340.258 74.1533C339.724 73.544 339.196 72.9416 338.694 72.3397C338.493 72.1368 338.292 72.0369 338.091 71.937C337.897 71.8408 337.704 71.7445 337.51 71.5561C334.363 65.6578 330.037 67.2333 325.316 69.201C323.349 69.9881 320.983 70.3901 318.623 70.774C313.902 71.5602 311.152 69.5893 311.546 64.4776L311.576 64.0796C311.96 59.0813 312.372 53.7277 313.905 48.7489C316.266 42.4579 315.87 36.954 312.33 31.0561C310.756 28.6968 309.972 25.55 309.579 22.8C309.324 21.7834 309.726 20.6008 310.149 19.3595C310.306 18.8985 310.465 18.4293 310.595 17.9576C310.627 18.3053 310.891 18.4749 311.153 18.4749C316.267 12.9701 322.558 13.7614 328.066 15.7243C334.754 18.0837 340.657 16.1139 345.378 12.5768C347.583 11.1995 349.209 8.66344 350.797 6.18733C351.476 5.12837 352.148 4.08039 352.855 3.13871ZM310.754 17.2944C310.71 17.5157 310.656 17.7369 310.595 17.9576C310.579 17.7822 310.622 17.5615 310.754 17.2944ZM359.148 24.3744C359.541 20.0493 359.938 15.3305 356.397 10.6127C355.875 11.3922 355.35 11.8273 354.825 12.2614C354.559 12.4821 354.292 12.7025 354.027 12.9679C350.093 18.0791 344.589 21.229 339.081 23.979C337.508 24.7661 335.537 24.3629 333.963 23.979C332.303 23.7022 330.691 23.376 329.094 23.0528C326.149 22.4571 323.254 21.8713 320.193 21.6224C319.013 21.6224 316.261 22.4054 315.867 23.1925C315.474 24.3731 316.264 26.3403 317.05 27.9145C317.57 29.0572 318.199 30.1727 318.83 31.2898C320.585 34.401 322.348 37.5245 321.769 41.2851C321.494 43.7517 320.839 46.0277 320.2 48.2449C319.923 49.2089 319.648 50.1617 319.41 51.1143C319.232 52.0036 319.014 52.8728 318.796 53.74C318.052 56.7074 317.313 59.6522 318.226 63.3029C319.456 62.8108 320.648 62.3576 321.802 61.9188C324.339 60.9542 326.69 60.0599 328.854 58.9779C330.821 57.7924 332.788 57.7874 334.755 59.3616C335.215 59.8218 335.735 60.2223 336.268 60.6329C337.102 61.276 337.969 61.9439 338.689 62.9046L347.734 71.9428C347.907 71.4238 348.156 70.982 348.382 70.5829C348.669 70.0741 348.917 69.6348 348.917 69.1937C349.704 64.8686 350.098 60.5408 350.492 55.823C350.886 48.7455 352.063 47.9559 359.145 48.743C361.261 48.9811 363.236 48.797 365.239 48.6103C366.587 48.4846 367.948 48.3578 369.372 48.3578C369.372 47.9643 369.372 47.5671 369.766 47.1832L369.666 47.0494C367.339 43.948 365.012 40.8472 362.297 38.1361C359.936 36.1727 358.754 34.2045 358.754 31.4545C358.754 29.0966 358.754 26.7309 359.148 24.3744ZM737.232 63.694C738.855 62.0718 740.537 61.1834 742.25 60.9434L742.25 60.9522C745.105 60.5778 748.052 62.0795 751.003 65.2758C753.756 67.6351 754.153 69.6013 752.186 73.5319C751.695 74.3171 751.253 75.1271 750.81 75.9372C749.48 78.3725 748.15 80.8093 745.493 82.5775C741.952 84.9292 738.806 85.3177 735.265 82.9613C731.724 80.6019 731.334 76.6667 732.514 73.5231C733.301 69.9846 734.872 66.444 737.232 63.694ZM744.163 68.2563C743.66 68.0164 743.179 67.8243 742.742 67.8243L742.741 67.8008C742.071 67.8008 741.47 68.1555 740.89 68.7938C740.131 68.4635 738.178 71.3603 737.944 73.5231C737.732 75.4806 738.626 76.9832 739.437 78.3476L739.484 78.4267C739.887 78.5227 740.323 78.4748 740.775 78.2349C743.136 77.0542 745.101 75.8775 747.068 73.9098C747.343 73.6355 747.234 72.6014 747.144 71.7333C747.133 71.6294 747.118 71.5282 747.109 71.4306C747.089 71.2323 747.077 71.0501 747.071 70.8979C747.07 70.8822 747.07 70.8668 747.069 70.8518C747.074 71.0123 747.091 71.2113 747.109 71.4306M579.049 162.058C580.395 161.366 581.78 160.654 583.011 160.414L583.013 160.424C586.16 160.031 589.308 161.21 590.882 164.354C592.453 167.499 593.242 170.644 590.488 173.792C590.094 174.181 589.698 174.969 589.305 175.756C587.337 182.049 580.652 185.193 574.751 182.836C573.57 182.443 572.386 181.257 571.992 180.077C570.418 176.145 573.177 166.317 576.718 163.173C577.454 162.879 578.245 162.472 579.049 162.058ZM582.76 168.231C582.479 168.206 582.174 168.178 581.881 168.178C581.34 168.178 580.849 168.28 580.652 168.664C579.078 170.631 577.897 172.593 577.11 174.561C577.11 174.954 577.898 176.529 578.685 176.529C579.736 176.792 580.61 176.526 581.661 176.205C582.184 176.046 582.75 175.873 583.403 175.746V168.273C583.222 168.273 583 168.253 582.76 168.231ZM368.984 182.43C375.18 180.659 381.595 180.419 387.902 180.611L387.902 180.586C390.004 180.682 392.099 180.779 394.164 180.875C408.721 181.662 422.882 184.414 436.258 188.739C441.38 190.444 446.35 193.056 451.262 195.637C454.274 197.22 457.265 198.792 460.256 200.136C461.83 200.923 463.408 201.311 464.982 200.927C468.42 200.778 471.856 200.459 475.271 200.143C480.846 199.626 486.363 199.115 491.731 199.353C499.206 199.746 507.077 201.71 514.553 203.678C524.388 206.43 533.439 211.151 541.701 217.048C541.898 217.048 541.996 217.145 542.093 217.241C542.19 217.336 542.288 217.432 542.485 217.432C549.794 219.77 554.496 225.15 559.174 230.502C560.791 232.352 562.405 234.199 564.123 235.916C569.627 241.416 573.628 247.814 577.702 254.328C578.288 255.265 578.875 256.204 579.468 257.143C583.403 263.041 586.942 269.335 589.696 276.019C594.024 287.815 597.569 299.61 600.323 311.406C601.899 317.697 602.285 324.382 601.891 331.066C601.497 340.109 600.323 349.546 598.356 358.197C597.358 363.181 594.953 367.883 592.569 372.543C592.133 373.396 591.697 374.248 591.271 375.1C590.408 377.112 589.336 378.915 588.207 380.814C587.791 381.512 587.368 382.224 586.945 382.964C583.01 389.255 578.678 395.158 574.35 401.056C573.683 402.057 573.087 403.126 572.502 404.176C571.706 405.604 570.931 406.995 570.024 408.129C564.516 415.206 558.613 421.895 552.711 428.58C547.597 434.084 542.09 439.588 536.582 444.699C535.4 445.875 535.008 446.657 536.189 447.838C536.402 448.264 536.499 448.805 536.605 449.398C536.695 449.902 536.792 450.444 536.972 450.986C537.169 451.771 537.366 452.655 537.563 453.54C537.761 454.426 537.959 455.312 538.156 456.1C538.549 457.674 538.942 459.637 538.156 460.818C537.369 462.784 537.76 464.359 538.939 465.934C539.187 466.181 539.434 466.467 539.694 466.767C540.262 467.423 540.889 468.146 541.698 468.683C546.416 471.826 548.872 476.478 551.275 481.029C551.878 482.172 552.478 483.307 553.109 484.411C553.527 485.246 553.721 486.082 553.93 486.976C554.113 487.766 554.308 488.603 554.677 489.526C554.907 490.294 555.138 491.046 555.365 491.79C556.304 494.853 557.194 497.759 557.827 500.922C559.401 505.641 560.974 510.757 561.762 515.475L561.781 515.578C562.955 521.835 564.13 528.095 564.912 534.742C566.093 543.392 567.27 552.043 567.664 560.3C567.664 564.081 568.309 567.43 568.964 570.827C569.194 572.023 569.426 573.225 569.63 574.453C570.417 579.957 571.993 584.677 577.107 588.214C582.222 591.36 583.007 596.862 579.466 602.76C578.286 604.727 576.714 607.084 575.14 608.658C571.924 611.515 571.951 614.701 571.983 618.502C571.986 618.885 571.989 619.275 571.989 619.67C571.989 626.748 571.202 633.821 568.055 640.505C566.219 644.699 565.083 649.244 563.946 653.788C563.378 656.061 562.809 658.334 562.154 660.563C561.761 662.331 561.466 664.098 561.171 665.866C560.876 667.637 560.58 669.407 560.186 671.177C558.614 677.857 560.186 684.535 561.759 691.215L561.762 691.228C562.648 695.061 562.869 698.895 563.091 702.729C563.164 704.007 563.238 705.285 563.337 706.563V707.743C564.517 714.427 562.939 720.324 558.611 725.829C557.359 727.393 557.103 729.705 556.853 731.969C556.788 732.551 556.724 733.13 556.644 733.692C556.513 735.529 556.513 737.453 556.514 739.392C556.515 743.262 556.517 747.19 555.468 750.596C553.501 756.493 549.565 762.395 546.024 767.506C543.969 770.441 541.475 773.159 539.033 775.819C538.203 776.724 537.379 777.621 536.581 778.519C535.794 779.306 535.399 780.088 535.005 780.875C534.671 785.218 532.067 788.426 529.603 791.461C529.166 791.999 528.734 792.531 528.32 793.063C525.96 796.601 522.815 799.748 519.668 802.892C517.804 804.444 515.446 805.752 513.18 807.009C512.576 807.344 511.979 807.675 511.4 808.006C510.613 808.39 509.045 808.39 507.865 808.006C504.717 807.219 501.568 806.039 498.421 804.859C496.06 804.07 494.488 802.495 496.062 799.352C496.849 796.99 496.058 795.81 493.304 795.81C492.4 795.81 491.454 795.852 490.493 795.894C488.527 795.98 486.501 796.068 484.651 795.81C482.291 795.417 479.532 794.245 477.958 792.278C475.99 790.312 476.39 787.161 478.357 784.805C480.644 782.139 482.926 779.1 485.212 776.054L485.434 775.759C486.614 774.579 487.406 773.403 488.193 771.828C489.373 769.467 488.188 768.287 485.434 768.287H485.36C481.455 768.287 477.933 768.287 474.023 767.505C467.728 766.325 465.761 758.463 470.088 753.352C472.056 750.993 474.421 749.024 476.781 747.061C479.142 745.095 480.322 743.127 478.748 739.59C477.485 736.749 477.236 733.652 476.983 730.507C476.921 729.735 476.859 728.96 476.781 728.185C476.733 727.897 476.685 727.603 476.636 727.304C476.286 725.159 475.897 722.781 475.206 720.713C474.216 718.239 473.156 715.835 472.114 713.471C470.672 710.2 469.263 707.006 468.121 703.811C465.917 697.833 463.97 691.6 462.07 685.52C461.595 684.002 461.124 682.494 460.653 681.002C460.123 679.679 459.941 678.354 459.759 677.03C459.696 676.568 459.632 676.105 459.554 675.643C459.41 675.595 459.318 675.594 459.078 675.498C458.488 677.268 457.799 679.041 457.11 680.813C456.422 682.583 455.734 684.352 455.144 686.119C454.578 687.911 453.967 689.702 453.354 691.498C451.41 697.193 449.449 702.941 448.851 708.919C447.969 714.211 448.406 719.723 448.847 725.289C448.996 727.168 449.145 729.052 449.244 730.937L450.42 776.944C450.719 789.479 448.979 802.014 447.263 814.377C446.718 818.302 446.176 822.209 445.702 826.093C444.128 841.034 439.799 855.186 432.324 868.162C428.633 874.616 423.985 880.351 419.312 886.116C418.007 887.726 416.699 889.339 415.411 890.97C413.848 892.924 411.503 894.097 409.159 895.27L409.11 895.294C407.145 896.47 406.357 897.651 406.751 900.007C407.733 905.895 407.353 912.06 406.971 918.267C406.894 919.521 406.817 920.777 406.751 922.032C405.964 935.007 401.244 946.011 394.556 956.627C392.147 960.479 389.442 964.185 386.713 967.925C384.985 970.292 383.248 972.673 381.57 975.112C381.177 975.505 380.784 975.996 380.391 976.486C379.998 976.977 379.605 977.469 379.211 977.863C377.99 978.778 376.769 979.702 375.546 980.629C368.883 985.676 362.134 990.788 354.821 994.773C347.74 998.708 340.263 1001.46 331.607 1000.67C317.444 999.885 308.394 991.233 300.525 981.403C297.771 977.864 295.015 974.321 293.048 970.39C287.933 960.954 286.361 951.127 288.722 940.118C290.296 932.647 292.267 925.177 295.415 918.492C296.989 914.953 299.346 911.411 302.1 909.054C306.036 905.909 306.43 901.975 305.643 897.651C305.25 893.336 304.466 889.025 303.681 884.711L303.676 884.68C303.676 884.155 303.324 883.627 302.973 883.1C302.798 882.838 302.624 882.575 302.492 882.313C298.163 876.415 296.987 869.733 297.774 862.262C298.246 858.729 298.292 855.055 298.338 851.41C298.369 848.969 298.4 846.542 298.558 844.177C298.952 839.852 299.64 835.527 300.329 831.202C301.018 826.878 301.707 822.553 302.101 818.228C302.204 817.04 302.328 815.853 302.451 814.667C303.268 806.822 304.077 799.052 298.95 791.879C296.983 788.734 295.018 785.591 292.657 782.841C291.477 781.267 290.296 781.267 288.723 782.841C278.887 792.277 269.443 801.709 259.607 811.539C252.525 818.616 246.625 826.481 245.445 836.704C243.871 853.611 237.578 868.946 231.283 884.28C229.486 888.591 227.525 892.821 225.55 897.081C223.202 902.146 220.834 907.255 218.697 912.594C216.465 918.647 215.005 924.958 213.484 931.527C213.128 933.066 212.769 934.618 212.396 936.185C211.385 940.224 210.687 944.365 209.98 948.558C209.311 952.528 208.634 956.543 207.678 960.559C206.497 964.884 204.927 969.216 202.959 973.146C202.172 974.716 200.989 975.897 199.809 976.679C195.875 979.432 195.478 983.368 196.658 987.692C197.839 992.41 197.842 997.13 193.907 1001.06C191.547 1003.42 188.793 1005.39 186.039 1007.35C180.924 1010.89 178.563 1015.61 178.17 1022.3C177.841 1028.87 176.413 1035.44 175.033 1041.78C174.763 1043.03 174.494 1044.26 174.236 1045.49C171.088 1061.22 162.041 1073.41 150.238 1083.63C146.697 1086.78 142.761 1089.53 138.827 1091.89C137.844 1092.48 136.564 1092.87 135.285 1093.26C134.005 1093.65 132.726 1094.05 131.742 1094.64C128.595 1096.59 125.847 1097 122.306 1096.21C121.126 1095.81 119.552 1096.21 118.372 1096.59C111.29 1098.17 104.209 1096.99 98.7005 1093.06C96.7958 1091.61 94.8282 1090.23 92.8606 1088.84C86.2933 1084.2 79.7248 1079.57 75.4866 1072.61C74.4862 1070.86 73.8031 1068.96 73.135 1067.09C72.7521 1066.02 72.3741 1064.97 71.9442 1063.97C70.7637 1060.82 69.5865 1057.28 69.1931 1054.14C67.2261 1042.73 66.8281 1031.72 70.3689 1020.71C71.7155 1016.51 73.1341 1012.3 74.5632 1008.07C76.4742 1002.4 78.4038 996.683 80.2047 990.833C81.7783 985.328 80.2061 980.215 77.8455 975.497C76.2717 971.958 75.8783 969.206 77.8455 965.276C78.7302 963.213 79.67 961.163 80.6106 959.112C84.6898 950.218 88.7846 941.289 88.465 931.065C88.465 928.705 87.6842 925.949 86.8974 923.592C84.9302 918.481 86.1074 913.374 87.6812 908.656C88.55 905.834 89.7781 903.012 91.0349 900.123C92.0547 897.78 93.0934 895.393 93.9746 892.927C94.7618 890.175 95.158 887.025 95.158 883.882C95.158 877.591 96.3352 871.694 97.909 865.796C99.2595 860.397 100.241 854.814 101.234 849.172C101.686 846.597 102.141 844.01 102.635 841.422C103.225 838.668 103.914 835.816 104.603 832.963C105.291 830.113 105.979 827.262 106.569 824.511C106.973 822.494 107.284 820.43 107.597 818.353C108.199 814.356 108.809 810.306 110.104 806.426C110.791 804.229 111.19 802.032 111.586 799.851C112.325 795.786 113.053 791.779 115.613 787.941C117.149 785.793 117.008 782.451 116.873 779.218C116.835 778.308 116.797 777.408 116.797 776.544C117.053 773.216 114.808 772.054 112.558 770.89C111.352 770.266 110.144 769.641 109.32 768.681C108.352 767.714 107.385 766.878 106.445 766.065C105.092 764.896 103.796 763.775 102.635 762.384C101.378 760.899 100.054 759.414 98.7211 757.92C95.4667 754.27 92.1608 750.562 89.6486 746.656C85.7143 740.758 82.1749 734.08 79.4209 727.396C75.8801 718.745 72.7281 709.702 70.7608 700.265C69.1869 692.794 68.7936 684.927 68.7936 677.456C69.0552 670.399 69.6673 663.341 70.2794 656.284C70.5881 652.726 70.8967 649.168 71.1604 645.609C71.514 637.483 74.4052 629.992 77.2716 622.566C77.5951 621.728 77.9184 620.89 78.2376 620.053C80.5982 613.368 83.3506 606.684 86.4981 600.393C90.4324 593.315 94.7631 586.241 99.4843 579.95C106.566 570.907 114.438 562.252 122.306 553.602C125.454 550.063 129.385 546.917 132.926 544.163C134.005 543.274 135.105 542.396 136.211 541.514C141.956 536.928 147.854 532.22 151.814 525.295L151.793 525.248C150.62 522.511 149.446 519.773 148.663 517.039C145.909 504.85 149.06 495.021 159.682 487.55C161.462 486.364 163.017 484.732 164.518 483.158C165.008 482.644 165.491 482.136 165.975 481.652C168.045 478.894 166.784 476.132 165.647 473.639C165.487 473.289 165.329 472.944 165.184 472.605C162.823 466.707 162.043 461.202 163.616 455.303C165.584 447.44 170.697 442.717 177.778 439.967C178.767 439.543 179.856 439.172 180.956 438.796C182.921 438.126 184.917 437.445 186.431 436.436C188.005 435.256 188.398 432.506 188.398 430.538C188.791 421.101 191.937 413.232 198.626 406.547C199.678 405.497 200.38 404.447 201.082 403.396C201.43 402.876 201.777 402.355 202.168 401.834C205.515 398.153 209.714 397.603 214.042 397.037C214.802 396.937 215.566 396.837 216.33 396.719C220.658 396.325 220.664 395.543 220.664 391.612C220.664 386.501 221.445 381.387 222.231 376.276C223.412 370.378 226.166 365.264 230.1 360.94C233.911 356.439 234.981 350.415 235.988 344.745C236.125 343.976 236.26 343.214 236.401 342.464C236.793 340.899 237.227 339.334 237.661 337.769C238.535 334.616 239.41 331.464 239.936 328.311C240.498 323.257 242.665 319.003 244.862 314.692C245.741 312.966 246.625 311.232 247.412 309.433C248.199 307.863 248.198 305.895 247.804 303.928C247.017 299.209 246.232 294.494 245.445 289.382C244.693 283.748 246.458 278.827 248.332 273.6C248.42 273.355 248.508 273.11 248.596 272.864C248.989 271.684 250.564 270.114 252.138 269.332C253.95 268.297 255.762 267.243 257.577 266.187C264.041 262.427 270.554 258.638 277.311 255.57C284.787 252.424 291.875 248.881 297.383 242.983C301.71 238.658 306.035 233.55 309.969 228.439C311.936 226.081 313.804 223.525 315.672 220.969C317.542 218.412 319.412 215.854 321.38 213.494C322.455 212.061 323.775 210.792 325.08 209.538C326.64 208.038 328.178 206.559 329.249 204.847C332.24 200.861 335.791 198.558 339.668 196.043C340.38 195.582 341.103 195.113 341.836 194.625C350.098 189.121 359.541 185.18 368.984 182.43ZM410.686 188.725C402.424 186.954 394.166 186.283 385.904 186.571C383.15 186.667 380.392 186.87 377.638 187.158C369.376 187.944 361.907 190.694 354.432 194.231C353.274 194.882 352.103 195.507 350.935 196.129C345.756 198.891 340.651 201.613 337.12 206.425C333.579 211.144 329.939 215.764 326.3 220.384C322.661 225.004 319.022 229.623 315.481 234.341C309.186 242.599 301.708 250.066 292.659 254.783C285.472 258.888 277.691 262.402 270.09 265.834C268.953 266.347 267.82 266.859 266.694 267.37C260.399 270.516 255.676 274.442 255.283 282.699C254.89 290.17 256.068 297.254 257.642 304.724C258.034 305.905 258.036 307.469 257.248 308.256C252.527 314.153 250.563 320.838 248.596 327.915C247.579 331.304 246.851 334.988 246.165 338.458C246.055 339.015 245.946 339.566 245.837 340.11L246.629 340.892C260.792 329.882 275.743 320.835 293.84 316.118C291.873 310.22 294.229 305.506 296.983 301.181C300.13 295.677 304.068 290.955 308.002 286.238C309.403 284.558 310.753 282.879 312.09 281.217C314.508 278.21 316.879 275.261 319.413 272.476L319.477 272.406C326.931 264.172 334.381 255.943 342.227 248.102C345.844 244.487 349.631 241.379 353.477 238.224C355.487 236.574 357.514 234.912 359.54 233.157C360.53 232.29 361.56 231.424 362.604 230.546C364.877 228.633 367.219 226.664 369.376 224.509C374.097 219.79 378.823 215.859 385.904 216.646C387.081 216.839 388.256 217.233 389.432 217.626C390.615 218.022 391.797 218.417 392.981 218.61C398.489 219.786 404.002 220.961 409.51 221.748C411.871 222.142 414.62 221.359 416.587 220.572C420.715 218.608 424.645 216.546 428.576 214.484C432.513 212.418 436.45 210.352 440.585 208.385C443.164 206.955 446.164 205.938 449.276 204.882C450.436 204.488 451.612 204.089 452.787 203.662C452.332 203.207 452.009 202.748 451.74 202.369C451.545 202.092 451.378 201.857 451.212 201.695C445.311 197.763 438.621 195.406 431.933 193.439C427.231 192.135 422.528 191.179 417.826 190.222C415.446 189.738 413.066 189.254 410.686 188.725ZM188.398 193.055C190.119 189.859 192.455 188.174 195.214 188.078C196.869 188.001 198.675 188.48 200.593 189.512L205.319 193.055C205.714 193.845 206.153 194.635 206.593 195.424C207.465 196.992 208.338 198.56 208.861 200.128C209.254 202.094 209.25 204.844 208.07 206.024C204.922 210.348 200.199 212.709 194.691 211.922C191.151 211.529 188.403 209.955 187.222 206.024C186.042 201.7 186.037 197.379 188.398 193.055ZM202.56 199.344C201.085 197.28 198.066 196.104 195.982 196.133L195.982 196.116C195.288 196.164 194.693 196.308 194.299 196.596C192.332 198.169 191.548 204.076 193.516 204.46C195.876 205.242 199.022 204.451 201.776 203.669C203.35 202.882 204.134 200.918 202.56 199.344ZM487.405 205.626C486.225 205.53 484.995 205.464 483.747 205.434L483.748 205.412C480.004 205.321 476.098 205.612 472.852 206.793C468.917 208.367 465.377 209.544 461.049 209.544C456.374 209.544 451.696 211.512 447.32 213.353C446.909 213.526 446.501 213.698 446.095 213.867C433.112 219.372 421.312 226.06 409.903 234.71C399.28 242.574 389.836 251.621 380.788 261.45C380.004 262.229 380.004 263.399 380.004 264.575V264.589C381.184 267.737 380.001 268.927 376.854 269.311C375.673 269.311 374.098 270.487 373.311 271.274C372.33 272.842 371.349 274.51 370.367 276.177C369.381 277.852 368.395 279.527 367.41 281.103H366.234L366.168 280.971C365.403 279.442 364.632 277.902 363.867 275.99C357.573 275.597 351.671 277.566 346.163 281.103C341.051 284.64 336.334 289.353 332.008 293.675L332.001 293.682C329.64 296.041 327.678 298.794 326.891 301.937C326.325 303.917 326.775 306.302 327.218 308.656C327.392 309.577 327.564 310.492 327.675 311.377C328.07 314.522 328.459 318.062 328.459 321.206C328.459 321.896 328.434 322.586 328.41 323.269C328.338 325.314 328.267 327.304 328.857 329.07C331.611 338.113 334.754 346.761 337.901 355.411C339.082 358.556 340.265 362.097 341.052 365.24C341.372 366.2 341.562 367.225 341.754 368.263C342.034 369.776 342.319 371.315 343.019 372.713C346.56 379.79 350.496 386.87 354.43 393.554C355.49 395.276 356.549 397.042 357.609 398.808C359.694 402.286 361.779 405.762 363.866 408.891C365.529 411.55 368.035 413.648 370.434 415.657C370.873 416.025 371.309 416.39 371.735 416.754C373.199 417.975 374.815 418.89 376.394 419.785C377.361 420.333 378.315 420.874 379.212 421.472L399.275 435.629C399.94 436.128 400.676 436.557 401.394 436.974C402.374 437.545 403.319 438.095 404.001 438.776C404.788 439.568 405.178 441.137 404.784 442.318C404.784 443.11 403.213 443.888 402.426 443.888H402.389C400.434 443.888 398.48 443.888 396.916 443.106C390.083 440.59 384.564 436.432 378.858 432.132C378.322 431.729 377.785 431.324 377.245 430.919C374.69 428.759 372.136 426.5 369.581 424.241C367.02 421.977 364.46 419.713 361.899 417.548L356.789 412.434C356.394 413.221 356.396 413.624 356.396 414.008C357.969 419.513 359.93 425.021 361.897 430.526C361.897 430.765 362.332 431.005 362.761 431.243C363.04 431.398 363.318 431.551 363.473 431.702C363.942 432.054 364.411 432.372 364.86 432.675C365.915 433.388 366.855 434.023 367.407 434.851C368.375 436.544 369.046 438.533 369.693 440.453C370.099 441.656 370.495 442.831 370.95 443.889C371.591 445.731 372.231 447.589 372.876 449.456C375.395 456.76 377.966 464.211 380.785 471.413C382.022 475.122 383.572 478.675 385.138 482.269C386.063 484.39 386.994 486.526 387.87 488.715L388.264 489.098C389.048 490.471 389.832 491.942 390.616 493.414C391.405 494.894 392.193 496.374 392.982 497.753C393.375 498.933 394.161 500.12 395.341 500.503C396.207 500.85 397.055 501.196 397.891 501.538C400.854 502.75 403.684 503.906 406.752 504.827C409.629 505.842 412.506 506.786 415.352 507.719C419.122 508.955 422.836 510.173 426.423 511.516C430.751 513.09 434.297 514.266 437.051 509.942C437.251 509.741 437.553 509.538 437.852 509.336C438.139 509.142 438.425 508.949 438.618 508.761L456.322 494.608C461.04 490.68 465.856 486.751 470.673 482.823C475.497 478.888 480.321 474.953 485.046 471.017C485.858 471.017 486.485 470.276 487.31 469.301C487.684 468.859 488.098 468.37 488.589 467.879C487.899 467.764 487.243 467.682 486.621 467.605C485.112 467.418 483.801 467.255 482.687 466.698C481.032 466.107 479.378 465.552 477.734 465C473.906 463.715 470.136 462.449 466.558 460.8C458.296 456.868 449.637 452.54 441.769 447.822C433.336 442.882 426.621 436.008 419.879 429.106C417.499 426.67 415.117 424.231 412.653 421.872C411.867 421.478 411.478 420.302 411.478 419.515C411.355 418.656 411.194 417.759 411.03 416.848C410.669 414.838 410.295 412.76 410.295 410.868C410.295 399.858 410.691 388.848 411.478 377.839C411.677 374.857 411.874 371.976 412.072 369.094C412.265 366.274 412.459 363.454 412.653 360.537C412.961 352.549 415.671 345.039 418.343 337.635C419.09 335.564 419.834 333.502 420.522 331.439C424.456 320.43 430.362 310.603 437.051 301.167C437.134 301.056 437.22 300.942 437.307 300.827C438.447 299.317 439.827 297.488 440.193 295.66C441.374 291.333 442.159 290.547 446.487 290.547C448.257 290.547 450.029 290.45 451.8 290.354C453.572 290.258 455.344 290.161 457.114 290.161C457.688 290.065 458.262 289.946 458.836 289.827C460.621 289.458 462.404 289.089 464.191 289.379C467.057 289.51 469.881 289.596 472.69 289.683C478.362 289.857 483.975 290.029 489.764 290.555C501.173 291.735 511.802 295.67 521.638 301.568C523.2 302.609 524.781 303.649 526.368 304.694C531.976 308.386 537.664 312.129 542.877 316.113C546.814 319.261 550.403 322.759 553.992 326.257C555.782 328.002 557.572 329.747 559.406 331.448C570.422 341.671 578.681 353.861 581.828 368.802C582.049 369.906 582.394 370.887 582.794 372.022C583.106 372.907 583.45 373.886 583.795 375.091C587.729 369.193 590.877 363.695 591.664 357.797C593.238 348.36 594.421 338.919 594.814 329.483C595.208 323.192 594.813 316.506 593.239 310.215C591.318 302.809 589.013 295.598 586.726 288.443C585.735 285.341 584.747 282.251 583.795 279.159C583.695 278.858 583.595 278.551 583.493 278.239C582.796 276.103 582.025 273.743 580.652 271.687C579.075 269.191 577.454 266.695 575.832 264.199C572.599 259.223 569.365 254.246 566.483 249.27C562.451 241.967 556.322 236.6 550.163 231.205C546.705 228.176 543.238 225.14 540.126 221.747C538.676 219.939 536.228 219.133 534.005 218.402C533.815 218.34 533.627 218.278 533.441 218.216C531.999 217.567 530.556 216.905 529.111 216.242C522.673 213.288 516.183 210.31 509.435 208.385C502.436 206.44 494.669 206.019 487.651 205.639L487.405 205.626ZM389.439 225.287C388.16 224.999 386.98 224.855 385.874 224.855C382.554 224.855 379.899 226.173 377.243 228.827C372.915 233.152 368.194 236.695 363.473 240.232C362.333 241.165 361.192 242.07 360.06 242.969C356.893 245.482 353.784 247.95 350.886 250.845C344.589 257.401 338.641 263.957 332.692 270.513C329.722 273.786 326.752 277.06 323.738 280.334C322.418 281.809 321.082 283.253 319.753 284.691C314.347 290.536 309.039 296.276 305.25 303.534C304.246 305.54 303.562 307.707 302.891 309.83C302.511 311.034 302.135 312.225 301.707 313.363C301.707 313.756 302.888 315.331 303.674 315.331C307.215 315.715 310.755 315.715 313.902 315.331C315.476 315.331 317.837 314.544 317.837 313.757C317.9 313.314 317.974 312.852 318.049 312.377C318.444 309.897 318.891 307.087 318.23 305.11C316.657 300.784 318.622 297.638 320.589 294.888C324.371 290.353 328.518 286.901 333.027 283.15C333.209 282.998 333.392 282.846 333.575 282.693C334.354 282.002 335.113 281.291 335.866 280.587C338.537 278.087 341.125 275.665 344.195 274.437C347.864 272.865 351.881 271.992 355.899 271.12C357.914 270.683 359.928 270.245 361.899 269.72C362.134 269.673 362.368 269.631 362.601 269.59C364.325 269.286 365.977 268.995 367.017 266.572C367.974 264.339 369.451 262.626 371.025 260.801C371.391 260.376 371.763 259.945 372.135 259.499C373.712 257.726 375.388 255.951 377.064 254.176C378.732 252.409 380.4 250.642 381.97 248.878C382.587 248.261 383.142 247.586 383.708 246.897C384.588 245.828 385.492 244.728 386.689 243.771C388.787 242.067 390.886 240.406 392.985 238.746C397.182 235.425 401.38 232.104 405.576 228.435C404.003 227.638 403.214 227.254 402.034 227.254C400.323 226.943 398.672 226.755 397.035 226.568C394.531 226.283 392.056 226.001 389.439 225.287ZM33.3852 244.953C34.1721 243.772 36.1424 241.82 36.5357 242.204C38.1094 242.597 40.0768 244.177 40.4701 245.751C40.7567 246.753 41.0433 247.743 41.3275 248.724C42.6035 253.13 43.8308 257.367 44.7963 261.869C45.5831 266.981 48.7306 269.734 52.6649 272.091C56.1861 274.043 59.7119 276.39 63.2331 278.733L63.2921 278.773C65.6527 280.343 65.2578 282.31 63.6839 284.278C61.3234 287.423 57.7809 288.604 54.24 289.785C53.5233 290.024 52.8227 290.263 52.1318 290.499C49.4094 291.427 46.8365 292.305 44.0124 292.933C41.2586 293.72 40.0781 295.29 40.0781 298.04C40.2087 299.737 40.3822 301.434 40.5557 303.131C40.9048 306.546 41.2539 309.962 41.2539 313.376C41.2539 314.95 40.0749 317.311 38.8948 318.094C38.2673 318.721 36.6403 318.095 35.4083 317.62C35.0953 317.5 34.8077 317.389 34.5686 317.311C32.6015 316.136 31.8114 314.955 31.4181 313.38C29.847 311.967 28.3397 310.492 26.8452 309.029C24.5971 306.828 22.378 304.656 20.0148 302.768C18.0476 301.184 15.2905 300.799 12.93 300.799C11.2722 300.556 9.615 300.745 7.95769 300.934C6.86174 301.058 5.76574 301.183 4.6695 301.183C1.12852 301.183 -0.836907 299.214 0.343242 295.677C1.0521 292.844 2.18498 290.01 3.31783 287.176C4.07124 285.292 4.82463 283.407 5.45326 281.523C5.45326 281.13 5.85145 280.727 6.24476 280.343C9.39219 276.017 10.179 272.089 6.24476 267.764C3.49077 264.618 3.09559 260.291 4.66943 256.361C5.84973 253.227 8.20724 252.036 11.3547 253.61C12.5162 254.046 13.6246 254.535 14.7191 255.017C16.5902 255.842 18.4207 256.649 20.4066 257.143C21.9804 257.532 24.7357 256.749 25.9162 255.174C27.2925 253.602 28.4708 251.834 29.649 250.065C30.8283 248.295 32.0075 246.525 33.3852 244.953ZM37.5032 257.817C37.1667 256.074 36.8247 254.303 36.5357 252.425C35.7767 253.181 35.1811 253.616 34.7481 253.932C34.5076 254.107 34.3173 254.246 34.1768 254.383C33.2094 255.59 32.3913 256.947 31.5388 258.361C31.0046 259.247 30.457 260.156 29.8506 261.064C27.8835 264.207 23.9477 266.175 20.4068 264.995C18.7262 264.715 17.2459 264.038 15.8226 263.387C15.2467 263.124 14.6802 262.865 14.1135 262.638C13.7195 262.445 13.2261 262.445 12.7327 262.446C12.2403 262.446 11.7479 262.446 11.3547 262.254V262.263C11.3547 263.05 11.3547 264.221 11.7466 265.005C12.14 266.181 12.9271 267.365 13.7138 268.152C17.6483 271.298 17.2578 275.23 14.8972 278.767C14.5048 279.549 14.0154 280.236 13.5257 280.923C13.0333 281.614 12.5407 282.305 12.1462 283.095C10.5725 286.24 8.99429 289.779 7.42045 293.316C9.0942 293.436 10.7319 293.338 12.3223 293.243C15.9658 293.024 19.3612 292.821 22.3739 295.283C26.0671 298.236 29.0629 301.533 32.6706 305.503C32.9061 305.762 33.1442 306.024 33.3853 306.289V299.999V294.492C34.1721 289.381 35.7474 287.418 40.862 286.238L50.3058 283.881C50.969 283.66 51.5084 283.315 52.1329 282.915C52.6199 282.604 53.1586 282.259 53.8482 281.914C50.3073 279.553 47.1599 277.59 44.0125 276.016C40.0782 274.05 38.8948 271.293 38.8948 266.969C38.6459 263.735 38.0826 260.818 37.5032 257.817ZM717.561 281.914C718.446 281.314 719.277 281.075 719.989 281.123C721.176 281.214 722.039 282.157 722.284 283.88C722.678 287.012 722.678 289.761 722.678 292.889V292.927C723.071 297.252 724.647 301.182 728.188 303.932C729.758 305.108 731.229 306.287 732.701 307.465C734.178 308.648 735.655 309.831 737.232 311.012C740.379 313.372 739.989 316.511 736.448 318.085L736.294 318.136C732.804 319.295 729.306 320.457 725.429 321.232C719.709 322.502 719.637 323.004 719.2 326.049C719.096 326.774 718.971 327.645 718.744 328.705C718.154 331.064 717.661 333.422 717.169 335.78C716.676 338.139 716.183 340.498 715.593 342.858C714.806 346.001 711.269 346.789 708.908 344.432L708.865 344.38C704.945 339.679 701.025 334.979 696.713 330.67C695.926 329.874 694.742 329.49 693.562 329.49C691.734 329.751 689.907 330.359 688.079 330.967C687.154 331.275 686.228 331.583 685.302 331.846C684.126 331.064 682.166 331.064 680.207 331.064H680.184C679.004 322.807 681.763 316.519 684.91 310.621C686.485 307.868 686.085 305.896 684.511 303.933C680.577 299.608 681.365 294.5 682.545 289.388C683.331 285.458 687.272 284.665 690.813 286.239C693.645 287.498 696.726 288.503 699.658 289.459C700.392 289.698 701.116 289.934 701.824 290.17C704.185 290.957 706.151 289.776 708.117 288.596L708.202 288.532C711.322 286.196 714.442 283.859 717.561 281.914ZM717.318 295.318C717.062 293.79 716.795 292.199 716.386 290.561L716.387 290.577C715.531 291.113 714.674 291.677 713.81 292.246C711.498 293.769 709.129 295.33 706.551 296.476C704.978 297.243 702.617 297.243 700.65 296.859C697.788 296 694.923 294.932 691.908 293.807C690.778 293.385 689.627 292.956 688.447 292.527C687.048 296.025 689.073 297.964 690.922 299.735C691.153 299.955 691.38 300.173 691.598 300.391C693.171 302.357 693.959 304.722 693.173 307.078C692.386 309.043 691.6 311.012 690.813 313.369C690.266 314.463 689.803 315.642 689.306 316.905C688.733 318.365 688.115 319.938 687.271 321.623C688.102 321.415 688.906 321.207 689.682 321.006C691.845 320.445 693.794 319.939 695.531 319.656C698.285 318.874 700.251 319.666 701.825 322.416C703.028 324.58 704.526 326.597 706.049 328.647C707.016 329.949 707.993 331.264 708.91 332.637C709.696 333.818 711.266 334.6 712.052 332.637C712.84 330.278 713.237 327.521 712.844 325.165C711.663 318.872 712.45 317.303 718.745 315.336L718.853 315.309C721.964 314.531 725.077 313.752 728.189 312.585C727.395 311.791 726.575 311.023 725.762 310.26C723.353 307.999 720.999 305.792 719.529 303.147C718.244 300.837 717.8 298.19 717.318 295.318ZM481.112 296.093C478.948 295.853 476.782 295.8 474.618 295.806L474.62 295.843C470.637 295.855 466.654 296.139 462.671 296.424C460.164 296.604 457.656 296.783 455.149 296.894C448.46 296.894 444.128 299.251 440.587 305.149C434.292 316.159 428.786 327.166 424.458 338.962C420.13 351.151 418.558 363.733 418.165 376.316C418.052 379.793 417.811 383.271 417.571 386.749C416.968 395.461 416.365 404.173 417.771 412.885C418.164 415.244 418.948 418.383 420.522 419.957C425.243 425.069 430.36 429.787 435.475 434.112C442.557 440.009 449.64 445.127 458.689 448.664C463.05 450.27 467.277 452.278 471.526 454.296C474.56 455.737 477.605 457.184 480.719 458.493C488.981 462.026 497.638 460.451 505.9 458.877C507.471 458.484 509.039 457.7 510.61 456.914L510.619 456.91C520.061 451.799 527.933 444.721 535.408 437.25C538.958 433.939 542.222 430.484 545.459 427.058C547.603 424.79 549.734 422.534 551.929 420.341C558.224 413.657 564.122 406.58 568.45 398.323C568.703 397.868 568.956 397.407 569.21 396.942C570.937 393.793 572.743 390.498 575.143 388.102C577.108 385.743 578.289 383.382 577.502 380.238L573.959 369.625C571.206 360.189 566.878 351.145 560.189 344.067C545.239 327.553 528.718 313.396 508.26 303.566C499.604 299.242 490.554 296.88 481.112 296.093ZM313.512 323.592C313.118 322.406 311.15 321.625 309.97 321.625L309.972 321.612C306.847 322.005 303.625 322.493 300.402 322.982C297.133 323.478 293.862 323.975 290.692 324.371C288.725 324.765 288.337 325.547 289.516 327.122C290.104 328.099 290.69 328.98 291.276 329.861C291.867 330.75 292.459 331.639 293.051 332.627C298.559 343.637 303.674 354.646 308.789 366.049C310.952 370.765 313.116 375.579 315.28 380.393C317.445 385.21 319.61 390.027 321.775 394.747C323.96 399.77 326.387 404.674 328.788 409.523C330.709 413.404 332.613 417.25 334.362 421.095L334.587 421.609C337.266 427.729 339.951 433.862 342.63 440.364C343.662 442.886 344.728 445.408 345.798 447.94C348.397 454.091 351.02 460.298 353.249 466.704C354.544 470.327 355.158 474.122 355.762 477.863C356.076 479.805 356.388 481.733 356.791 483.615C357.578 488.726 359.147 492.662 365.836 493.046C370.311 492.766 374.19 494.074 378.179 495.42C379.802 495.967 381.442 496.52 383.148 496.975V495.799C381.443 490.931 379.589 486.063 377.77 481.288C376.651 478.349 375.545 475.445 374.496 472.599C373.315 469.847 372.232 466.996 371.149 464.145C370.066 461.293 368.983 458.442 367.803 455.69C367.016 454.116 365.84 452.143 364.66 451.759C361.906 450.579 361.121 448.611 360.334 445.861C359.153 441.536 357.573 436.817 354.032 433.674L353.939 433.58C347.278 426.923 340.235 419.884 333.969 412.839C333.701 412.526 333.422 412.213 333.141 411.897C330.949 409.435 328.597 406.792 329.643 402.61C330.036 401.041 330.821 400.647 332.002 401.828C334.562 404.19 337.123 406.454 339.684 408.718C342.238 410.976 344.793 413.234 347.347 415.59C348.515 416.759 349.295 417.928 350.074 419.097L350.098 419.133C350.294 419.133 350.394 419.037 350.493 418.94C350.593 418.844 350.692 418.748 350.89 418.748C350.693 418.158 350.594 417.471 350.495 416.785C350.395 416.097 350.295 415.409 350.098 414.818C349.707 413.058 349.316 411.199 348.925 409.34C348.53 407.462 348.135 405.583 347.739 403.805C347.47 402.73 347.294 401.609 347.115 400.473C346.77 398.285 346.416 396.044 345.38 393.975C343.216 389.453 340.954 384.931 338.691 380.408C336.428 375.887 334.166 371.365 332.002 366.844C332.002 366.646 331.903 366.447 331.804 366.249C331.706 366.053 331.608 365.859 331.608 365.668C332.179 360.538 330.062 356.026 327.954 351.536C327.155 349.832 326.356 348.131 325.707 346.401C323.119 339.935 319.469 333.733 315.847 327.58C315.064 326.249 314.282 324.92 313.512 323.592ZM283.613 329.488C283.318 328.898 282.135 328.317 281.231 328.221L281.225 328.217H281.218C280.918 328.217 280.652 328.217 280.457 328.312C278.49 328.706 276.523 329.882 274.556 331.063L274.481 331.112C266.637 336.207 258.793 341.303 251.342 346.79C241.899 353.868 234.822 362.913 230.495 373.922C227.741 381.393 227.739 388.861 228.919 396.331C229.706 401.049 228.131 403.012 223.41 402.229C218.295 401.442 212.784 401.049 208.456 404.586C201.375 410.877 195.866 418.347 194.686 428.177C194.293 430.932 195.478 431.718 197.445 432.899C200.199 434.47 202.561 436.438 204.922 438.406C205.135 438.619 205.231 439.061 205.338 439.546C205.428 439.958 205.525 440.401 205.705 440.762C205.456 440.762 205.168 440.801 204.865 440.841C204.212 440.929 203.492 441.025 202.954 440.762C201.325 440.219 199.694 439.488 197.934 438.698C197.145 438.344 196.33 437.979 195.478 437.613C195.084 442.331 191.934 443.128 188.393 443.512C187.606 443.512 186.429 443.511 185.642 443.895C173.839 446.648 167.539 454.516 169.113 466.312C169.417 469.046 170.428 471.548 171.416 473.994C171.707 474.713 171.996 475.428 172.264 476.142C173.444 480.469 175.803 483.622 180.524 484.006C180.963 484.006 181.404 484.252 181.912 484.537C182.315 484.763 182.761 485.012 183.283 485.182C182.521 487.851 181.014 487.555 179.131 487.185C179.071 487.173 179.01 487.161 178.949 487.149C172.654 485.969 167.939 487.939 163.612 492.263C163.22 492.652 162.828 492.945 162.435 493.238C162.038 493.534 161.641 493.83 161.245 494.226C154.163 500.124 151.806 507.592 154.559 516.635C155.415 519.485 156.892 521.926 158.389 524.4C158.957 525.339 159.528 526.283 160.069 527.256C162.43 531.189 162.034 535.119 160.461 539.444C160.264 539.837 160.067 540.219 159.874 540.594C158.91 542.468 158.038 544.162 157.71 546.125C154.956 561.853 156.523 577.194 163.212 591.741C167.863 601.702 173.079 611.099 178.38 620.647C179.357 622.406 180.336 624.171 181.316 625.945C187.217 636.561 195.479 644.815 204.921 652.286C206.495 653.462 208.066 653.865 209.64 654.249C209.831 652.337 209.928 650.519 210.023 648.748C210.124 646.878 210.221 645.062 210.423 643.245C210.423 642.458 210.034 640.889 209.248 640.889C205.396 639.284 203.636 636.105 201.836 632.854C201.43 632.12 201.022 631.383 200.588 630.66C199.408 628.694 198.425 626.533 197.442 624.371C196.458 622.208 195.475 620.046 194.294 618.08C192.721 615.327 193.509 614.146 195.87 612.965C197.05 612.567 198.624 612.183 199.804 612.183C203.345 623.193 208.853 632.63 215.541 641.28C216.803 642.856 217.812 644.938 218.771 646.916C219.008 647.405 219.241 647.887 219.475 648.354C220.656 650.715 223.8 652.288 226.161 651.501C227.734 650.714 229.313 649.923 226.952 647.96C226.165 647.178 225.378 646.002 224.985 644.821C224.356 643.384 223.726 641.926 223.092 640.457C220.95 635.496 218.753 630.408 216.325 625.554L216.277 625.449C214.326 621.159 212.373 616.865 210.031 612.576C208.902 609.939 210.294 609.108 212.141 608.006C212.223 607.957 212.306 607.907 212.391 607.857C214.358 606.676 215.544 607.468 216.724 609.431C218.691 613.95 220.755 618.568 222.819 623.185C224.885 627.808 226.951 632.43 228.919 636.955C229.706 638.92 230.882 640.879 232.062 642.453C232.259 642.453 232.456 642.357 232.654 642.261C232.851 642.165 233.049 642.069 233.245 642.069C233.139 641.485 233.033 640.909 232.928 640.337C232.253 636.676 231.618 633.231 231.278 629.491C231.475 629.491 231.672 629.395 231.87 629.299C232.067 629.203 232.265 629.107 232.462 629.107C236.002 633.825 239.147 638.934 241.114 645.225C241.586 644.202 242.106 643.195 242.623 642.193C244.687 638.193 246.699 634.292 245.44 629.889C244.966 628.468 244.538 627.002 244.107 625.523C242.746 620.863 241.35 616.076 238.363 612.196C237.576 611.016 236.789 609.447 236.396 607.873L230.494 585.457C230.101 583.489 230.101 581.909 232.462 581.526C232.629 581.492 232.8 581.456 232.972 581.419C234.822 581.024 236.884 580.584 237.963 583.1C238.947 585.656 239.833 588.31 240.719 590.964C241.604 593.618 242.489 596.272 243.473 598.827C245.047 602.759 246.625 606.694 248.199 610.231C249.379 612.203 250.948 611.815 251.342 609.847C251.573 608.345 251.872 606.842 252.169 605.35C252.884 601.764 253.587 598.235 253.309 594.904C253.103 591.811 252.14 588.827 251.157 585.781C250.265 583.017 249.357 580.202 248.983 577.209C247.409 566.593 240.718 560.303 232.062 555.191C229.308 553.226 226.557 551.653 223.41 550.078C221.067 548.516 218.337 547.346 215.604 546.174L215.541 546.147C207.722 543.41 199.902 543.791 192.083 544.173L191.935 544.18C186.821 544.574 181.313 545.363 178.165 550.868C177.965 551.071 177.764 551.171 177.563 551.27C177.369 551.367 177.175 551.463 176.982 551.651C175.802 546.147 176.985 542.614 182.099 540.646L182.172 540.622C185.689 539.444 189.202 538.268 192.719 537.887C198.62 537.484 204.13 537.483 210.031 538.27C214.359 538.664 218.692 540.239 222.626 542.202C227.192 544.636 231.285 547.309 235.455 550.033C236.675 550.829 237.901 551.63 239.147 552.431C242.294 554.399 245.047 556.754 247.407 559.111C249.258 561.224 250.755 563.515 252.135 565.626C252.809 566.657 253.455 567.645 254.1 568.549C256.461 568.549 258.818 568.55 260.785 568.934C266.687 570.115 272.587 571.294 278.882 572.082C285.148 572.864 291.805 572.864 298.464 572.864H298.553C305.635 572.864 312.326 572.47 319.408 571.683C319.713 571.632 320.03 571.588 320.355 571.543C322.548 571.238 325.065 570.888 326.093 568.151C326.88 565.596 327.667 562.944 328.455 560.292C329.243 557.636 330.032 554.981 330.819 552.423C331.101 551.579 331.332 550.683 331.567 549.773C331.987 548.141 332.42 546.463 333.178 544.951C334.162 542.788 335.244 540.624 336.326 538.46C337.407 536.297 338.488 534.134 339.471 531.973L339.481 531.951C342.232 525.667 344.982 519.384 344.589 512.314C344.589 509.561 346.948 509.564 348.915 509.564C351.276 509.564 352.452 510.745 352.058 513.495C350.878 522.145 347.737 530.403 344.589 538.66C341.049 546.917 337.9 555.566 335.146 564.216C333.832 568.417 332.867 572.969 331.902 577.52C331.422 579.784 330.942 582.048 330.42 584.269C326.879 585.051 325.307 584.656 324.126 580.726C323.34 578.763 322.158 578.763 320.584 578.763C318.004 578.86 315.425 578.979 312.845 579.097C304.803 579.467 296.761 579.836 288.718 579.545C282.504 579.253 276.293 578.293 270.081 577.333C268.033 577.016 265.985 576.699 263.936 576.407C261.978 576.023 260.017 576.023 258.447 576.023H258.427C260.001 582.707 261.181 588.212 262.361 593.717C262.361 594.504 263.143 595.69 263.537 596.074C266.291 596.866 269.051 597.248 271.805 597.248H289.901H295.411C300.132 596.855 304.853 596.458 309.181 596.074C312.606 596.835 317.133 597.236 321.342 597.609L321.768 597.647C321.768 596.461 321.768 595.674 322.161 594.887C322.254 594.611 322.346 594.291 322.443 593.953C322.761 592.851 323.134 591.56 323.737 590.958C324.523 590.564 326.492 591.35 327.279 592.531C328.394 593.646 329.312 594.959 330.172 596.189C330.526 596.695 330.869 597.187 331.213 597.645C332.393 599.414 333.474 601.281 334.555 603.147C335.636 605.014 336.718 606.881 337.898 608.651C338.292 609.447 340.262 610.215 341.049 609.831C342.229 609.044 343.016 607.471 343.016 606.684C342.623 603.145 343.011 599.996 344.192 596.853C345.372 593.707 346.555 590.167 347.342 587.024C349.706 580.107 351.996 573.19 354.277 566.305C357.311 557.143 360.327 548.036 363.471 539.057C363.865 538.008 364.303 536.958 364.741 535.908C365.615 533.811 366.489 531.714 367.014 529.619C367.09 529.313 367.211 528.993 367.333 528.669C367.839 527.327 368.367 525.93 365.83 525.295C362.29 524.116 361.506 522.537 363.08 518.606C363.475 517.824 363.867 517.028 363.473 516.644C362.381 514.87 361.621 512.908 360.865 510.954C359.44 507.275 358.026 503.625 354.429 501.315C354.037 501.315 354.031 500.518 354.031 500.134C353.638 498.86 353.222 497.586 352.805 496.311C351.55 492.474 350.295 488.635 349.704 484.798C348.13 475.362 345.768 466.319 342.228 457.276C339.67 451.575 337.31 445.776 334.951 439.977C332.591 434.179 330.231 428.38 327.674 422.679C324.201 414.791 320.223 406.902 316.347 399.218C315.393 397.325 314.445 395.445 313.512 393.581C308.791 383.751 304.461 373.922 300.134 364.092C297.38 358.587 294.626 352.687 292.265 347.183C291.937 346.526 291.677 345.871 291.429 345.244C291.082 344.367 290.757 343.546 290.298 342.858C288.331 338.532 285.974 333.813 283.613 329.488ZM548.778 352.297C549.368 351.688 550.651 351.515 551.929 351.659C553.208 351.803 554.488 352.294 555.079 353.081L563.339 366.059C563.81 366.842 564.217 367.626 564.612 368.385C565.207 369.529 565.772 370.618 566.482 371.564C570.416 378.249 566.09 388.075 562.156 392.399C560.583 394.167 559.11 396.034 557.637 397.901C556.162 399.771 554.686 401.642 553.112 403.411C551.34 405.575 549.47 407.64 547.6 409.704C545.731 411.767 543.862 413.83 542.092 415.991C541.681 416.401 541.317 416.812 540.967 417.207C540.314 417.945 539.711 418.626 538.942 419.139C538.227 419.851 537.225 420.276 536.283 420.675C535.669 420.936 535.081 421.185 534.616 421.495L533.44 420.315C534.206 419.09 534.912 417.866 535.604 416.666C536.689 414.784 537.741 412.959 538.942 411.276C541.696 407.738 544.549 404.199 547.402 400.66C550.255 397.121 553.108 393.581 555.863 390.042C560.584 384.144 562.943 379.033 558.222 370.382C556.269 366.479 553.779 363.11 551.195 359.615C550.656 358.885 550.113 358.151 549.57 357.404C549.363 357.128 549.131 356.865 548.904 356.604C547.831 355.381 546.831 354.241 548.778 352.297ZM431.541 359.37C432.328 358.583 433.211 357.992 434.146 357.848V357.839C435.08 357.691 436.067 357.988 437.051 358.967C443.306 365.61 449.172 372.645 455.037 379.678L455.147 379.81C455.54 380.597 455.929 381.379 456.323 382.559C453.175 384.532 450.821 384.532 448.854 382.176C447.081 380.208 445.21 378.24 443.339 376.272C441.471 374.307 439.603 372.343 437.834 370.379C436.851 369.201 435.769 368.119 434.687 367.038C433.605 365.958 432.524 364.877 431.541 363.699C429.967 362.13 429.967 360.944 431.541 359.37ZM429.182 378.636C430.362 378.036 431.539 377.685 432.886 377.7L432.888 377.71C433.336 377.71 433.802 377.758 434.294 377.854C434.818 377.854 435.342 378.552 435.867 379.25C436.128 379.599 436.39 379.948 436.653 380.21C440.214 384.164 443.676 388.019 447.138 391.875C450.562 395.687 453.987 399.5 457.508 403.41C459.081 404.982 461.048 406.944 459.475 409.699C458.294 411.273 454.75 410.885 452.39 408.917C451.586 408.378 450.966 407.658 450.404 407.005C450.141 406.7 449.89 406.409 449.639 406.158C444.918 400.653 440.592 395.933 435.477 390.821C434.822 389.839 434.031 388.789 433.188 387.671C432.006 386.103 430.724 384.402 429.576 382.567C428.788 381.391 428.788 379.02 429.182 378.636ZM355.606 387.684C352.459 384.146 353.244 381.39 357.965 380.603L357.965 380.61C358.79 380.882 360.001 381.546 360.923 382.052C361.32 382.269 361.663 382.457 361.899 382.573C363.77 384.91 365.575 387.225 367.349 389.502C373.039 396.802 378.424 403.711 384.721 409.705C389.043 414.024 394.188 417.686 399.304 421.328C402.105 423.323 404.898 425.311 407.543 427.398C408.11 427.821 408.728 428.195 409.324 428.556C410.381 429.195 411.366 429.792 411.87 430.547C412.656 431.722 413.047 433.686 412.653 435.26C412.653 436.057 410.298 436.824 409.511 436.44C407.15 435.653 404.787 434.472 402.426 433.291C400.065 432.111 397.708 430.542 395.741 428.968C394.17 427.79 392.696 426.514 391.223 425.238C389.744 423.957 388.265 422.676 386.689 421.495C385.578 420.384 384.269 419.471 383.042 418.615C382.531 418.258 382.034 417.911 381.571 417.564C375.67 412.846 371.345 407.344 367.017 401.446C364.593 398.216 361.984 395.17 359.318 392.057C358.089 390.622 356.847 389.172 355.606 387.684ZM427.999 397.121C428.589 396.137 429.769 395.647 430.949 395.647L430.951 395.658C432.132 395.658 433.312 396.147 433.902 397.131C435.16 398.386 436.257 399.803 437.399 401.278C438.043 402.11 438.702 402.961 439.412 403.811L439.018 404.195C442.364 407.539 445.71 410.785 449.056 414.031C452.398 417.273 455.739 420.515 459.081 423.855C459.683 424.457 460.055 425.747 460.373 426.848C460.471 427.187 460.564 427.508 460.657 427.786C460.263 427.917 459.826 428.134 459.389 428.352C458.514 428.787 457.639 429.222 457.114 428.966C454.36 427.786 451.604 426.601 449.637 424.244C446.293 420.902 443.047 417.462 439.802 414.023C436.556 410.583 433.31 407.143 429.966 403.801C429.772 403.607 429.577 403.314 429.382 403.021C429.182 402.721 428.982 402.421 428.783 402.227C425.242 401.046 426.818 398.695 427.999 397.121ZM859.987 413.645C860.479 413.534 861.02 413.518 861.586 413.548L861.588 413.555C863.285 413.666 865.2 414.328 866.675 415.216C867.572 415.665 868.341 416.495 869.128 417.345C869.721 417.986 870.325 418.638 871.001 419.146C872.968 420.715 874.934 421.109 877.295 419.928L877.337 419.909C881.65 417.951 885.967 415.992 890.673 414.423C892.127 414.132 894.225 414.494 896.333 414.858C897.077 414.986 897.823 415.115 898.541 415.215C899.328 422.292 899.726 428.187 895.398 433.691C893.431 436.051 893.427 439.196 894.607 441.946C896.181 445.091 897.753 448.241 898.933 451.384C899.721 452.955 899.726 455.317 899.332 456.891C898.382 458.788 896.919 458.386 895.358 457.957C894.981 457.853 894.597 457.748 894.214 457.673C890.673 456.881 887.527 456.497 883.987 456.497C882.806 456.497 881.622 457.284 880.836 458.072C879.791 459.507 878.789 460.943 877.788 462.378C875.772 465.266 873.757 468.154 871.392 471.042C870.605 472.223 868.638 473.395 867.457 473.011C866.278 472.617 864.71 471.053 863.923 469.872C863.726 469.379 863.528 468.891 863.332 468.408C861.967 465.039 860.677 461.857 859.989 458.076C859.202 453.753 856.053 452.568 852.512 451.387C849.758 450.605 846.612 449.429 844.251 448.248C840.71 446.282 840.314 443.525 843.068 441.168C846.609 438.022 850.153 434.876 854.087 432.121C855.661 430.94 856.447 429.37 856.447 427.014C856.053 424.273 856.053 421.532 856.053 418.793V418.759C856.053 416.006 857.626 414.029 859.987 413.645ZM893.029 424.644C893.62 423.171 893.11 422.115 891.984 422.211L891.986 422.229C891.612 422.277 891.164 422.421 890.672 422.709C886.345 424.675 882.022 426.642 877.694 428.999C877.591 429.043 877.488 429.087 877.386 429.13C874.763 430.256 872.49 431.232 870.217 428.206C869.221 426.961 867.908 426.19 866.381 425.294C865.494 424.774 864.535 424.211 863.524 423.489C863.524 426.243 863.529 427.812 863.923 429.387C865.103 433.71 863.523 436.466 859.589 438.434C858.077 439.297 856.685 440.276 855.215 441.31C854.008 442.159 852.748 443.044 851.328 443.932C852.452 444.354 853.476 444.827 854.453 445.278C856.211 446.091 857.818 446.834 859.589 447.081C864.703 448.261 865.886 449.047 867.066 454.552C867.328 456.127 867.941 457.701 868.553 459.275C868.858 460.058 869.163 460.841 869.425 461.625C869.819 461.625 870.214 461.625 870.608 462.008C871.402 460.819 872.296 459.528 873.19 458.238C874.068 456.971 874.946 455.704 875.726 454.536C878.48 449.425 879.654 449.032 885.162 450.212C887.084 449.818 889.006 450.194 890.928 450.57L891.063 450.596C891.063 450.188 891.462 449.805 891.462 449.805L889.095 445.086C888.984 444.81 888.874 444.541 888.766 444.278C888.104 442.671 887.527 441.271 887.527 439.581C887.527 437.977 888.313 436.114 889.03 434.413C889.191 434.029 889.35 433.654 889.495 433.291C889.801 432.578 890.133 431.838 890.47 431.085C891.435 428.935 892.447 426.681 893.029 424.644ZM690.413 435.26C691.298 434.66 692.075 434.419 692.719 434.467C693.79 434.559 694.503 435.499 694.748 437.222C694.86 438.453 695.036 439.684 695.211 440.916C695.653 444.012 696.094 447.108 695.532 450.202C694.745 456.887 698.282 460.424 702.217 464.355L702.232 464.37C705.375 467.511 708.911 471.045 711.661 474.577C714.021 477.329 712.45 480.482 708.91 480.866C704.582 481.274 700.251 481.658 695.923 481.658C692.776 481.658 691.6 483.231 690.813 485.588C689.24 490.306 687.663 495.025 685.696 499.349C684.909 500.919 682.551 502.498 680.977 502.882C679.797 503.276 678.223 501.317 677.043 499.743C674.682 496.597 672.709 493.449 670.742 490.305C669.168 487.55 666.811 486.764 664.057 486.764C662.09 486.764 660.122 486.86 658.155 486.956C656.188 487.051 654.221 487.147 652.254 487.147C646.352 487.147 643.989 483.219 647.136 478.108C648.876 475.21 651.046 472.524 653.17 469.896C653.928 468.958 654.68 468.027 655.404 467.097C655.6 466.707 655.893 466.413 656.185 466.119C656.48 465.823 656.774 465.527 656.972 465.133C661.3 460.414 661.302 460.024 658.155 454.52C655.401 449.409 656.978 443.505 661.306 439.575C661.654 439.575 662.07 439.541 662.534 439.504C663.644 439.415 665.029 439.304 666.416 439.575C669.17 440.362 671.532 441.543 673.892 442.724C676.647 444.303 678.617 444.308 680.977 442.34C682.036 441.547 683.095 440.708 684.153 439.87C686.239 438.217 688.325 436.565 690.413 435.26ZM318.622 434.475C318.717 434.665 318.835 434.878 318.96 435.102C319.351 435.805 319.806 436.623 319.806 437.22C319.413 444.297 318.626 451.377 317.839 458.061C317.445 459.635 315.478 461.21 313.904 461.992C311.652 462.958 309.139 463.657 306.791 464.311C306.268 464.456 305.754 464.6 305.252 464.743C300.533 465.923 299.741 467.105 300.134 471.823C300.134 472.761 300.381 473.697 300.68 474.832C300.757 475.125 300.837 475.431 300.918 475.754C301.705 478.507 300.92 480.469 298.559 482.043C297.188 483.021 295.817 483.903 294.446 484.784C293.064 485.673 291.681 486.562 290.298 487.55C289.512 487.944 289.117 488.73 288.723 489.517C287.936 495.415 285.581 500.527 281.646 505.244C281.125 505.954 280.61 506.664 280.096 507.372C276.341 512.545 272.667 517.605 267.476 521.755C265.11 523.529 262.645 525.302 260.181 527.076C257.729 528.84 255.277 530.604 252.923 532.368C252.726 532.368 252.628 532.464 252.531 532.56C252.433 532.656 252.335 532.752 252.139 532.752C249.207 534.705 247.828 535.591 247.519 536.759C247.207 537.943 247.994 539.416 249.38 542.582C250.167 544.155 250.955 546.113 250.955 548.081C250.955 549.65 250.165 552.41 249.772 552.41C247.805 552.41 245.842 552.011 244.662 549.261C243.525 546.42 241.977 543.781 240.463 541.202C239.882 540.211 239.306 539.23 238.76 538.248C232.859 528.026 223.81 522.128 213.188 518.198C207.286 515.841 200.987 514.267 194.692 514.267C194.298 514.267 193.517 514.267 193.124 513.883C192.337 513.293 191.648 512.605 190.958 511.918C190.267 511.23 189.577 510.542 188.79 509.952C189.313 509.69 189.836 509.342 190.36 508.994C191.412 508.295 192.465 507.595 193.516 507.595C203.352 507.595 212.401 509.562 221.056 513.886C226.958 516.638 232.072 520.574 236.793 524.898C238.367 526.472 239.938 528.44 241.511 530.796C243.686 529.413 245.961 528.028 248.235 526.643C250.486 525.272 252.737 523.901 254.89 522.533C265.512 515.849 273.384 506.026 279.679 495.409C280.995 493.436 280.932 490.632 280.876 488.158C280.865 487.674 280.854 487.203 280.854 486.753C280.854 484.392 281.25 482.814 284.005 482.43C284.946 482.43 285.884 481.923 286.625 481.523C286.813 481.422 286.988 481.327 287.148 481.249C292.656 478.89 294.235 476.142 293.449 470.244L293.432 470.161C293.045 468.222 292.657 466.281 292.657 464.346C292.657 460.809 293.443 459.624 296.984 459.624C299.265 459.624 301.549 459.252 303.831 458.88L304.068 458.842C309.183 458.449 310.757 454.91 311.937 450.586C312.838 447.435 313.868 444.413 314.88 441.446C315.636 439.23 316.382 437.044 317.055 434.859C317.841 434.473 318.228 434.475 318.622 434.475ZM689.908 459.172C689.549 455.189 689.157 450.849 688.446 445.871C688.133 446.033 687.883 446.131 687.671 446.214C687.35 446.339 687.116 446.431 686.878 446.662C686.092 447.252 685.401 447.843 684.711 448.433C684.021 449.023 683.331 449.613 682.544 450.204C679.397 453.347 677.435 453.342 673.5 450.986C673.128 450.753 672.762 450.515 672.397 450.278C669.674 448.51 667.036 446.797 662.873 447.838C663.435 448.681 663.946 449.423 664.426 450.119C665.289 451.372 666.048 452.474 666.807 453.736C667.144 454.408 667.457 455.013 667.743 455.564C670.136 460.175 670.592 461.054 666.024 466.322C664.998 467.475 663.973 468.586 662.961 469.682C660.866 471.952 658.829 474.159 656.972 476.543C656.487 477.028 656.303 477.513 656.05 478.181C655.892 478.599 655.707 479.087 655.404 479.692H668.775C670.348 479.692 672.32 480.479 673.5 481.659C675.834 484.324 677.885 487.271 680.132 490.5C680.537 491.082 680.948 491.673 681.369 492.274C682.156 491.487 682.55 490.704 682.944 489.523C684.124 486.771 685.3 483.62 686.087 480.476C687.267 475.367 688.841 474.187 693.955 474.187C695.963 474.187 697.971 473.97 700.436 473.704C701.353 473.604 702.333 473.499 703.399 473.395C700.904 471.127 698.539 469.122 696.304 467.227C694.665 465.836 693.095 464.505 691.596 463.174C690.81 462.387 690.021 461.211 690.021 460.424C689.984 460.01 689.946 459.593 689.908 459.172ZM531.581 455.187C531.605 454.082 531.63 452.942 531.865 451.768C530.473 452.603 529.08 453.292 527.739 453.955C525.291 455.166 523.017 456.29 521.237 458.067C516.123 462.393 510.226 464.35 504.325 465.531C503.918 465.734 503.405 465.94 502.896 466.145C502.42 466.336 501.946 466.526 501.566 466.711C499.185 468.562 496.982 470.594 494.718 472.682C493.615 473.699 492.498 474.729 491.338 475.758C489.99 476.806 488.585 477.741 487.189 478.669C484.917 480.18 482.668 481.676 480.719 483.622C477.178 486.571 473.637 489.715 470.096 492.86C466.555 496.005 463.013 499.149 459.472 502.098C452.39 507.603 446.486 512.324 440.584 517.435C440.779 517.63 440.879 517.826 440.978 518.022C441.078 518.22 441.178 518.417 441.376 518.611C442.188 518.971 443.02 519.332 443.863 519.697C446.698 520.926 449.658 522.209 452.387 523.725C455.535 525.299 457.897 524.507 459.864 522.151C469.306 511.535 479.929 502.101 491.338 493.844C496.846 489.912 502.353 485.981 507.467 481.657C510.32 479.123 513.108 476.525 515.91 473.915C520.065 470.044 524.25 466.146 528.714 462.389C531.473 460.183 531.525 457.781 531.581 455.187ZM535.408 470.253C534.032 469.072 532.945 468.483 531.912 468.579L531.905 468.592C530.872 468.693 529.888 469.474 528.708 471.048C528.182 471.575 527.7 472.101 527.218 472.628C526.259 473.676 525.299 474.724 523.99 475.772L523.678 476.006C517.487 480.646 511.298 485.285 505.494 489.924C503.14 491.885 500.743 493.803 498.346 495.72C493.533 499.57 488.72 503.419 484.255 507.619C480.448 510.976 476.896 514.588 473.237 518.31C470.466 521.127 467.635 524.006 464.584 526.886C465.326 527.504 465.99 528.083 466.638 528.647C468.049 529.878 469.381 531.038 471.269 532.384C470.44 532.661 469.756 532.984 469.15 533.271C468.029 533.802 467.172 534.208 466.151 533.959C457.496 532.779 449.238 530.028 441.37 525.704C438.222 524.13 435.073 522.56 431.926 521.379C422.484 517.84 413.038 514.301 403.203 511.157L365.435 498.179C364.651 497.795 363.477 497.795 361.526 497.795H361.5C361.898 498.126 362.273 498.435 362.627 498.727C364.381 500.17 365.636 501.204 366.618 502.513C367.408 503.961 368.154 505.41 368.9 506.858C370.382 509.736 371.863 512.615 373.695 515.491C374.482 516.667 375.666 518.246 376.846 518.63L411.071 531.609C417.271 533.932 423.473 535.871 429.673 537.809L429.959 537.898C432.516 538.686 434.976 539.373 437.435 540.06C439.895 540.748 442.355 541.435 444.912 542.222C449.028 543.397 453.143 544.672 457.258 545.946C461.403 547.229 465.548 548.512 469.694 549.695C470.284 549.888 470.875 549.887 471.564 549.887C472.251 549.887 473.037 549.887 474.02 550.078L473.996 550.031C472.829 547.697 472.052 546.144 471.661 544.58C471.27 543.793 471.661 542.218 472.055 541.431C473.235 540.646 474.811 539.862 475.598 540.649C477.171 541.436 478.352 543.006 479.532 544.58C481.1 546.93 482.277 549.672 483.453 552.411L483.467 552.444C484.254 554.407 485.04 555.582 487.401 555.582C489.761 555.582 490.946 558.338 490.16 560.306L490.094 560.475C485.395 572.607 480.697 584.735 476.389 597.259C474.128 603.537 472.186 609.979 470.259 616.375C469.168 619.993 468.083 623.596 466.946 627.147C464.192 635.405 461.433 643.655 458.285 652.305C457.892 653.884 457.108 655.449 455.535 654.268C454.355 653.481 452.784 651.917 452.784 650.737C453.177 646.805 453.571 643.261 454.751 639.724C455.932 635.988 457.209 632.351 458.486 628.713C459.763 625.077 461.04 621.441 462.22 617.706L470.488 591.757C472.455 585.86 474.811 579.563 477.565 573.665C477.751 573.2 477.959 572.779 478.158 572.376C478.801 571.076 479.35 569.966 478.749 568.167C478.355 566.986 478.355 565.416 478.749 564.236C480.323 560.304 479.926 559.512 475.598 558.73C467.73 557.159 459.86 555.581 452.384 553.224C440.582 549.686 428.779 545.752 416.976 541.428C412.618 539.845 408.161 538.26 403.705 536.676C399.31 535.113 394.917 533.551 390.619 531.99C387.078 530.81 383.931 529.633 380.783 528.059C377.636 526.49 376.062 528.07 374.882 530.82C374.446 531.953 374.01 533.066 373.578 534.168C372.061 538.04 370.597 541.778 369.372 545.756C367.404 551.854 365.436 557.856 363.467 563.857C361.501 569.85 359.535 575.844 357.569 581.934C356.389 585.473 355.406 589.11 354.423 592.747C353.44 596.384 352.457 600.021 351.276 603.559C350.796 604.76 350.022 605.81 349.223 606.894C348.713 607.586 348.194 608.291 347.734 609.058C347.536 609.058 347.439 608.962 347.342 608.866C347.244 608.77 347.147 608.674 346.95 608.674C346.95 609.264 346.852 609.756 346.753 610.248C346.655 610.739 346.556 611.231 346.556 611.821C346.556 612.1 346.535 612.444 346.511 612.808C346.437 613.985 346.349 615.364 346.95 615.364C347.471 615.538 348.012 615.75 348.563 615.966C350.508 616.728 352.587 617.542 354.427 616.929C358.361 615.748 360.716 616.147 361.896 620.078C362.289 620.865 363.077 621.661 363.471 622.045L363.584 622.085C367.874 623.641 372.165 625.197 376.065 626.758C378.846 627.928 381.573 629.153 384.285 630.372C388.863 632.429 393.402 634.469 398.096 636.196C400.658 637.181 403.319 637.97 405.98 638.759C408.63 639.545 411.281 640.331 413.833 641.31L430.355 647.208C431.551 647.582 432.761 647.955 433.979 648.331C439.177 649.935 444.535 651.589 449.635 653.498C453.963 655.071 453.964 655.859 451.21 659.396C451.709 660.228 452.278 661.058 452.888 661.947C453.72 663.161 454.628 664.486 455.536 666.076L457.111 662.937C458.291 660.184 459.075 657.824 459.862 655.074C460.256 654.286 460.749 653.5 461.242 652.713C461.734 651.926 462.227 651.139 462.621 650.352C463.409 648.382 464.197 646.513 464.984 644.643C465.769 642.78 466.554 640.917 467.339 638.955C468.889 634.826 470.514 630.772 472.149 626.693C474.25 621.451 476.367 616.17 478.358 610.641C480.549 604.62 482.358 598.411 484.183 592.144C484.981 589.406 485.782 586.658 486.619 583.909C487.799 579.976 489.371 576.043 490.945 572.112C491.434 570.486 492.057 568.926 492.675 567.378C493.551 565.184 494.418 563.013 494.88 560.709C495.631 557.457 496.699 554.362 497.782 551.225C498.401 549.431 499.025 547.623 499.598 545.764C499.993 544.382 500.389 543.098 500.786 541.815C501.179 540.542 501.572 539.269 501.964 537.9C502.751 534.752 505.899 533.576 507.866 535.933C508.653 536.72 508.653 539.081 508.26 540.655L498.816 570.145C496.963 575.7 495.162 581.305 493.356 586.924C490.177 596.819 486.983 606.758 483.47 616.538C479.536 627.154 475.211 637.767 470.884 648.383C468.129 655.46 465.371 662.544 468.125 670.408C468.912 672.571 469.306 674.732 469.7 676.894C470.095 679.055 470.489 681.217 471.276 683.379C473.728 689.997 476.332 696.614 478.899 703.136C480.451 707.078 481.988 710.984 483.47 714.835C483.838 715.844 484.269 716.832 484.7 717.818C486.117 721.06 487.526 724.285 486.621 728.204C485.834 732.922 487.409 737.252 490.163 741.182C493.311 745.509 492.523 746.296 488.588 749.046C485.441 751.405 482.289 754.55 479.928 757.693C477.961 760.443 478.748 762.022 481.895 762.406C482.879 762.598 483.962 762.502 485.046 762.406C486.129 762.31 487.213 762.214 488.196 762.406C489.114 762.538 490.119 762.581 491.125 762.625C493.135 762.712 495.145 762.8 496.457 763.587C499.997 765.946 500.388 773.028 497.24 776.565C494.486 779.711 491.734 782.858 488.98 786.396C488.456 786.921 488.28 787.793 488.103 788.666C488.015 789.101 487.927 789.536 487.797 789.928C488.446 789.928 489.096 790.045 489.681 790.149C490.159 790.234 490.593 790.312 490.947 790.312C494.094 789.918 496.851 789.525 499.999 788.737C505.114 787.558 506.686 789.133 506.292 794.245V796.6C505.899 800.142 507.079 801.323 510.227 801.707C513.374 802.1 515.338 800.531 516.912 798.568C519.635 795.069 521.974 791.564 524.309 788.066L524.389 787.947C526.154 785.006 527.48 782.288 528.859 779.46C529.323 778.507 529.794 777.541 530.29 776.55C528.316 776.346 526.44 776.244 524.614 776.145C522.8 776.046 521.035 775.951 519.271 775.759C513.37 774.973 511.01 771.436 511.01 765.538C511.01 764.081 511.055 762.669 511.099 761.272C511.186 758.52 511.272 755.826 511.01 752.958C510.814 750.597 510.518 748.234 510.222 745.872C509.927 743.514 509.632 741.155 509.435 738.798C509.041 734.866 509.438 730.548 512.586 727.4C519.274 719.927 527.539 716.784 537.375 717.571C539.735 717.571 542.091 717.571 544.452 717.955C545.239 717.955 546.811 719.524 546.811 720.311C546.811 721.492 545.631 722.673 544.844 723.46C544.058 724.228 542.49 724.228 541.31 723.844C535.408 723.057 529.894 723.839 525.173 726.983C522.812 728.556 520.059 730.922 519.271 733.672C518.484 737.604 518.484 742.321 519.271 746.251C520.452 751.756 521.243 757.263 520.063 763.161C519.276 768.269 521.242 769.834 526.356 769.45C526.904 769.45 527.452 769.281 528.039 769.101C528.717 768.892 529.447 768.668 530.291 768.668C532.258 768.291 534.225 768.284 536.192 768.284H536.207C536.994 768.284 538.16 768.284 538.551 767.502C541.306 764.356 544.061 760.817 546.028 757.28C547.996 753.348 549.965 749.411 549.571 744.693C549.338 742.82 549.522 741.089 549.709 739.33C549.836 738.136 549.965 736.928 549.965 735.655C549.571 729.757 550.355 723.854 554.683 719.137L554.693 719.121C555.476 717.946 556.258 716.773 556.65 715.206C557.83 707.735 557.047 700.267 555.866 692.797C555.604 690.962 555.167 689.128 554.73 687.294C553.856 683.625 552.982 679.956 553.507 676.286C554.687 666.849 556.654 657.8 559.408 648.364C559.885 646.724 560.375 645.084 560.867 643.441C564.029 632.874 567.226 622.189 566.885 610.619C566.885 609.045 567.671 607.082 568.852 606.295C571.994 603.941 573.566 600.407 575.137 596.875L575.145 596.857C576.326 593.318 575.536 591.747 571.995 590.567C567.667 589.387 565.7 587.03 566.094 582.312C566.094 581.131 566.094 579.562 565.7 578.381C565.306 576.217 564.815 573.954 564.323 571.692C563.833 569.431 563.342 567.171 562.949 565.01C562.293 560.031 561.725 555.051 561.157 550.072C560.02 540.109 558.883 530.147 557.047 520.185C554.687 507.996 551.143 496.201 546.028 484.798C543.274 478.901 540.129 474.184 535.408 470.253ZM205.331 481.592C205.926 481.212 206.469 480.866 206.895 480.866L206.895 480.874C209.649 480.874 212.01 481.268 214.764 482.055L214.84 482.072C219.929 483.247 225.012 484.421 230.101 486.379C233.627 487.944 236.763 490.292 239.898 492.638L239.937 492.668C240.33 493.076 240.33 493.076 239.937 493.46L239.971 493.512C240.747 494.675 241.517 495.829 241.904 496.993C242.297 498.173 242.691 500.15 241.904 500.534C241.008 501.118 239.884 501.036 238.878 500.963C238.56 500.94 238.254 500.918 237.97 500.918C237.576 500.918 236.795 500.529 236.402 499.742C232.661 493.962 226.566 492.297 220.662 490.684C219.735 490.431 218.814 490.179 217.906 489.913C216.136 489.322 214.366 488.83 212.597 488.338C210.827 487.846 209.057 487.354 207.287 486.764C206.5 486.764 206.105 486.375 205.711 485.588C205.235 485.111 204.903 484.49 204.54 483.813C204.304 483.371 204.055 482.906 203.744 482.44C204.285 482.26 204.827 481.914 205.331 481.592ZM2.70324 506.813C4.17863 503.866 6.72579 502.298 9.48838 502.306C11.1459 502.316 12.8831 502.886 14.5062 504.067C15.7166 504.551 16.7763 505.182 17.7791 505.78C18.406 506.153 19.0107 506.513 19.6161 506.816C22.3701 511.141 21.9815 515.47 20.4077 519.794C18.834 523.724 15.2915 526.48 10.9638 527.267C8.20984 527.655 5.45872 527.257 4.27857 524.507C1.52458 519.003 -0.837589 513.104 2.70324 506.813ZM12.8453 512.262C11.6941 511.495 10.5492 510.731 9.7818 509.964L9.76133 509.994C8.98138 511.164 8.2045 512.33 7.81461 513.501C7.52423 514.082 7.66263 514.88 7.75495 515.413C7.78767 515.601 7.81461 515.757 7.81461 515.857C8.20801 517.038 8.9951 518.218 9.78185 519.399L9.84595 519.366C11.3983 518.585 12.9513 517.804 14.1157 516.639C14.6397 516.377 14.8128 515.768 14.9862 515.158C15.0731 514.852 15.1601 514.546 15.2914 514.283L15.2023 514.194C14.4451 513.441 13.6897 512.69 12.9323 512.32L12.8453 512.262ZM152.208 542.992C152.601 541.418 152.996 540.238 153.783 538.27C153.318 538.581 152.912 538.831 152.568 539.043C152.039 539.368 151.654 539.605 151.416 539.838C148.672 542.188 145.832 544.638 142.991 547.087C140.129 549.555 137.267 552.023 134.503 554.39C123.487 564.22 113.26 574.832 104.604 587.021L104.577 587.06C99.0779 594.911 93.5769 602.765 90.4346 612.186C88.4675 618.084 86.11 623.983 83.7494 629.88C80.0547 638.496 79.0125 647.591 77.9796 656.603C77.6926 659.107 77.4064 661.605 77.0642 664.084C76.4723 668.519 76.5446 672.954 76.6169 677.389C76.6408 678.852 76.6646 680.315 76.6646 681.778C76.6646 682.576 76.535 683.31 76.4075 684.032C76.2211 685.086 76.0393 686.116 76.2728 687.284C76.3503 687.775 76.4278 688.267 76.5056 688.761C77.6113 695.785 78.761 703.087 80.599 709.7C83.7464 720.71 88.0741 731.326 94.369 741.156C96.5701 744.578 99.2296 747.694 101.872 750.789C103.481 752.674 105.083 754.551 106.571 756.485C106.896 756.917 107.19 757.35 107.479 757.775C108.241 758.897 108.965 759.962 110.106 760.819C120.729 769.467 133.323 772.609 146.306 771.822C157.716 771.429 169.124 770.258 180.14 768.684C187.979 767.43 195.819 765.423 203.46 763.466C205.406 762.968 207.339 762.473 209.255 761.995C212.752 760.995 215.931 759.84 218.994 758.728C220.755 758.088 222.477 757.462 224.201 756.888V755.707C223.143 755.472 222.094 755.237 221.051 755.003C215.113 753.673 209.378 752.388 203.354 751.383C202.567 751.383 201.382 751.782 200.595 752.166L188.792 758.064C180.923 761.207 172.274 762.771 163.619 762.387C153.783 762.387 144.338 761.207 134.895 757.67C126.633 754.525 119.551 749.806 113.257 743.908C110.109 741.156 107.357 738.011 104.996 734.862C104.329 733.953 103.652 733.044 102.973 732.131C99.2502 727.128 95.4634 722.039 92.8013 716.386C90.0472 710.881 88.8638 704.982 87.6837 699.084C86.1098 692.4 85.326 685.325 84.9326 678.641C84.6315 675.33 85.0204 671.786 85.3958 668.365C85.5107 667.319 85.6243 666.284 85.7165 665.27C85.9754 663.201 86.149 661.131 86.3214 659.076C86.6729 654.884 87.0196 650.751 88.0756 646.794C89.5526 641.775 91.6949 636.753 93.8365 631.732C94.5473 630.066 95.258 628.4 95.9442 626.734C98.3048 621.23 100.665 615.728 103.813 610.616C109.321 601.966 115.614 593.314 121.909 585.451C124.859 581.765 128.27 578.388 131.662 575.029C133.698 573.013 135.728 571.004 137.646 568.938C138.241 568.344 138.908 567.785 139.57 567.23C141.099 565.949 142.607 564.686 143.156 563.042C143.826 560.362 145.356 559.394 147.254 558.192C147.584 557.983 147.924 557.768 148.273 557.535C149.454 556.753 150.633 555.577 150.633 554.396C151.344 550.844 151.735 547.289 152.094 544.027C152.132 543.679 152.17 543.334 152.208 542.992ZM151.025 572.874L149.849 566.976C148.894 567.793 147.891 568.565 146.907 569.322C145.054 570.748 143.266 572.124 141.981 573.663C139.803 576.081 137.551 578.425 135.305 580.762C130.245 586.028 125.213 591.264 121.126 597.254C116.793 603.208 113.207 609.723 109.597 616.284C107.962 619.255 106.322 622.235 104.605 625.176C98.31 636.579 94.3728 648.372 93.5857 661.347C93.472 663.279 93.2928 665.211 93.1145 667.134C92.6759 671.862 92.2426 676.534 92.8019 681.006C93.5887 689.264 95.5513 697.917 97.9119 705.781C99.4856 711.285 102.243 716.392 104.997 721.109C106.715 723.807 108.892 726.2 111.051 728.572C112.353 730.002 113.648 731.425 114.832 732.904C115.621 733.89 116.509 734.778 117.447 735.714C118.379 736.646 119.361 737.627 120.342 738.802C121.916 736.443 123.096 734.481 124.276 732.513C124.802 731.987 125.371 731.462 125.94 730.937C127.074 729.89 128.208 728.844 128.994 727.796C129.781 726.225 129.78 724.256 129.386 722.289C129.157 721.142 128.66 719.995 128.13 718.77C127.751 717.895 127.355 716.981 127.027 715.999C125.453 710.495 126.243 706.955 130.178 704.205C132.13 703.814 134.081 702.643 136.034 701.471L136.079 701.444C134.899 696.724 134.894 696.33 139.222 693.58C139.075 693.286 138.873 692.994 138.657 692.68C138.295 692.154 137.893 691.571 137.647 690.831C137.469 690.417 137.291 690.011 137.116 689.612C136.129 687.36 135.23 685.307 134.895 682.968C134.502 679.821 134.403 676.576 134.304 673.331C134.204 670.087 134.105 666.844 133.712 663.699C132.812 658.004 133.974 652.311 135.099 646.792C135.451 645.07 135.798 643.365 136.079 641.682C138.046 632.246 140.794 622.417 145.515 613.766C147.089 610.818 148.761 607.967 150.433 605.116C152.105 602.265 153.777 599.414 155.351 596.465C156.138 594.894 156.536 592.533 156.142 590.959C154.569 584.668 152.992 578.772 151.025 572.874ZM556.257 593.703C556.847 593.51 557.638 593.318 558.424 593.27L558.424 593.285C559.211 593.223 559.993 593.333 560.583 593.717C561.764 594.111 562.556 595.675 562.95 596.856C562.95 597.643 561.77 598.828 560.983 599.212C558.592 600.35 556.201 601.455 553.82 602.556C547.97 605.259 542.178 607.936 536.586 611.009C531.942 613.619 527.725 617.089 523.62 620.465C522.162 621.665 520.718 622.853 519.273 623.987L516.914 626.343C515.34 627.908 513.372 628.301 511.405 626.727C510.224 625.548 511.014 621.619 512.588 620.438C513.375 619.848 514.063 619.257 514.751 618.666C515.439 618.076 516.127 617.485 516.914 616.895C525.547 607.909 536.813 602.869 548.002 597.864C549.052 597.394 550.101 596.925 551.147 596.453C552.131 596.059 552.917 595.568 553.703 595.078C554.488 594.587 555.274 594.096 556.257 593.703ZM166.37 610.227C164.796 607.868 162.828 604.718 160.86 601.181C160.513 601.704 160.165 602.15 159.852 602.552C159.455 603.06 159.113 603.499 158.893 603.939C158.295 605.134 157.697 606.318 157.103 607.494C154.179 613.283 151.346 618.891 149.057 624.773C143.943 637.748 140.8 651.12 141.98 665.275C142.242 667.11 142.155 668.946 142.068 670.78C142.024 671.698 141.98 672.614 141.98 673.531C142.374 679.822 143.551 685.719 146.698 691.224C147.823 693.472 148.82 695.786 149.816 698.099C152.303 703.875 154.79 709.651 159.285 714.423C161.015 716.152 162.62 718.133 164.225 720.113C166.635 723.087 169.045 726.062 171.879 728.185C180.535 734.476 189.973 739.98 200.595 742.73C202.355 743.193 204.115 743.677 205.88 744.163C211.613 745.741 217.401 747.335 223.417 748.237C230.892 749.408 238.762 749.408 246.631 748.621C263.548 747.442 278.894 741.94 293.451 734.076C294.785 733.409 295.867 732.492 296.912 731.608C297.716 730.927 298.497 730.266 299.352 729.752C310.368 723.068 321.384 716.385 330.827 707.734C333.398 705.165 336.474 703.095 339.614 700.983C341.279 699.863 342.961 698.731 344.597 697.505C349.711 693.966 354.821 690.04 359.542 686.109C364.167 682.258 368.791 678.023 373.415 673.787L373.704 673.522C377.444 670.178 381.185 666.736 384.926 663.294C388.662 659.857 392.399 656.419 396.134 653.079C396.775 652.439 397.456 651.799 398.153 651.146C399.596 649.792 401.101 648.379 402.428 646.79C402.279 646.635 402.186 646.485 402.108 646.357C401.98 646.147 401.889 645.999 401.644 645.999L386.299 638.926C385.512 638.537 384.327 639.315 383.54 640.102C381.97 641.671 380.402 643.339 378.833 645.006C377.257 646.681 375.681 648.356 374.104 649.931C365.055 659.368 356.006 668.805 346.564 677.455C340.951 682.333 335.033 686.757 329.095 691.196C325.46 693.913 321.818 696.636 318.232 699.472C306.43 708.909 293.058 716.379 279.681 723.063C274.249 725.66 268.392 727.406 262.534 729.152C258.633 730.315 254.732 731.478 250.958 732.892C236.401 738.012 221.845 736.046 207.288 732.509C200.641 730.848 194.273 727.782 187.95 724.738C186.788 724.179 185.627 723.62 184.466 723.071C181.712 721.89 179.356 719.931 177.389 717.963C175.226 715.605 173.16 713.147 171.094 710.69C169.027 708.231 166.959 705.772 164.795 703.412C164.53 703.147 164.254 702.882 163.976 702.616C162.603 701.299 161.188 699.941 160.861 698.305C159.233 692.884 157.98 687.274 156.714 681.606C156.143 679.052 155.57 676.487 154.959 673.922C154.537 671.604 154.229 669.288 153.912 666.911C153.637 664.853 153.357 662.749 152.992 660.56C152.598 657.808 152.207 655.053 152.6 652.696C153.286 646.529 154.272 640.658 155.296 634.567C155.447 633.668 155.599 632.764 155.751 631.853C156.931 624.776 160.077 618.486 165.978 613.768C166.765 612.976 166.763 611.014 166.37 610.227ZM326.892 605.111C320.401 603.93 313.682 603.206 306.914 603.398C304.657 603.456 302.398 603.649 300.136 603.937C292.468 605.114 284.799 604.966 277.13 604.818C274.568 604.769 272.007 604.719 269.445 604.719C265.083 604.719 263.421 604.221 262.492 604.834C261.578 605.437 261.375 607.117 260.009 611.408C258.042 618.095 256.072 619.659 250.957 618.872C251.163 619.487 251.341 620.077 251.514 620.647C252.002 622.261 252.444 623.72 253.316 625.17C255.284 629.102 255.68 633.036 254.5 636.966C253.76 639.184 252.866 641.401 252.011 643.521C251.502 644.784 251.006 646.013 250.565 647.187C248.992 650.724 247.023 652.284 243.089 651.9L224.601 657.798C223.027 657.011 221.45 656.607 219.483 656.223C219.483 656.975 219.642 657.574 219.757 658.008C219.823 658.256 219.875 658.451 219.875 658.59C220.268 661.34 218.693 663.307 216.332 662.52C216.056 662.444 215.779 662.369 215.5 662.293C211.407 661.183 207.061 660.004 203.746 657.798C199.029 655.048 195.101 651.124 191.171 647.197L191.159 647.185C187.225 643.647 184.071 639.322 180.924 634.998C179.103 632.496 177.415 629.728 175.707 626.926C174.462 624.884 173.206 622.825 171.879 620.836C171.486 620.049 170.305 619.272 169.912 619.272C169.125 619.272 168.338 620.452 167.945 621.239C167.369 622.472 166.759 623.688 166.15 624.901C163.846 629.489 161.563 634.037 161.252 639.324C161.105 641.533 160.793 643.742 160.481 645.951C159.959 649.64 159.438 653.329 159.684 657.017C159.956 662.175 160.975 667.332 161.968 672.36C162.413 674.615 162.854 676.844 163.219 679.035C163.481 680.343 163.656 681.694 163.832 683.046C164.184 685.758 164.536 688.47 165.586 690.831C173.455 708.525 187.617 719.137 205.321 725.035C213.583 727.785 222.238 729.364 230.894 729.364C234.198 729.364 237.843 727.989 240.873 726.846C241.089 726.764 241.303 726.684 241.513 726.605C242.645 726.152 243.646 725.31 244.668 724.452C245.422 723.818 246.187 723.175 247.023 722.674C248.805 721.635 250.642 720.652 252.494 719.662C255.547 718.029 258.638 716.376 261.577 714.419C271.019 707.735 280.069 700.655 288.725 693.185C294.233 688.86 298.959 683.353 303.286 677.849C306.04 674.507 308.989 671.364 311.937 668.22C314.887 665.076 317.837 661.931 320.591 658.589C325.748 652.621 330.718 646.464 335.63 640.378C337.838 637.643 340.034 634.922 342.23 632.24C344.148 629.556 346.445 626.876 348.746 624.19L348.923 623.984C348.264 623.722 347.65 623.416 347.064 623.124C345.901 622.544 344.852 622.021 343.805 622.021C336.33 621.235 332.788 616.125 330.427 609.834C330.034 608.653 329.247 607.473 328.46 606.292L328.438 606.271C328.038 605.87 327.279 605.111 326.892 605.111ZM649.505 610.228C651.866 608.452 653.931 607.573 655.898 607.621C657.865 607.669 659.733 608.648 661.7 610.616C661.98 610.896 662.326 611.198 662.692 611.516C663.868 612.541 665.242 613.739 665.242 614.94C665.636 617.692 664.847 620.844 663.667 623.594C663.001 626.256 660.643 626.947 658.503 627.574C658.116 627.687 657.736 627.799 657.374 627.919C653.833 629.1 650.286 628.313 647.138 626.739C643.989 625.166 642.42 620.845 644.387 617.308C645.176 616.126 646.064 614.943 646.951 613.76C647.836 612.582 648.72 611.404 649.505 610.228ZM653.458 614.549H653.439L653.437 614.538C653.063 615.287 652.489 615.918 651.944 616.517C650.771 617.806 649.728 618.952 651.07 620.829C652.644 622.403 655.006 623.589 656.58 621.621C657.422 620.501 657.264 618.778 657.104 617.027C657.039 616.321 656.974 615.61 656.974 614.932C656.974 614.549 654.644 614.549 653.458 614.549ZM541.311 619.665C542 619.266 542.61 619.056 543.163 619.026C544.823 618.901 545.93 620.164 546.815 621.637C547.816 623.641 546.552 624.509 545.185 625.447C544.941 625.614 544.694 625.784 544.456 625.963L524.392 638.941C521.638 640.908 518.887 642.871 515.74 644.839C514.859 645.412 513.756 645.343 512.599 645.272C512.205 645.247 511.805 645.222 511.406 645.222C511.406 644.825 511.381 644.428 511.357 644.038C511.285 642.881 511.216 641.781 511.804 640.899L519.673 633.035C526.292 629.144 533.682 624.48 541.079 619.811L541.311 619.665ZM357.183 627.922C356.986 627.818 356.74 627.797 356.476 627.827L356.476 627.836C355.683 627.927 354.725 628.517 354.432 629.107C353.056 630.678 351.779 632.348 350.501 634.018C349.221 635.691 347.942 637.363 346.564 638.936C345.126 640.681 343.715 642.426 342.309 644.164C338.33 649.083 334.396 653.947 330.035 658.596C328.459 660.368 326.784 662.14 325.109 663.912C323.44 665.677 321.77 667.443 320.199 669.209C317.839 671.83 315.566 674.494 313.293 677.159C308.746 682.49 304.198 687.82 298.952 692.801C290.705 700.651 282.065 707.716 273.425 714.78L273.379 714.817C271.957 716.036 270.64 717.151 269.319 718.27C268.083 719.317 266.843 720.367 265.511 721.506H267.086C268.913 720.593 270.741 719.723 272.569 718.852C276.251 717.098 279.934 715.344 283.615 713.243C284.888 712.516 286.171 711.789 287.459 711.059C294.525 707.053 301.74 702.963 308.396 698.307C309.797 697.307 311.273 696.409 312.743 695.515C317.052 692.894 321.296 690.314 323.35 685.329C323.35 684.93 324.133 684.546 324.133 684.546C325.141 683.428 326.18 682.341 327.214 681.259C329.816 678.537 332.39 675.844 334.361 672.75C339.082 666.066 344.197 659.771 350.098 653.874L358.366 645.618L363.084 639.72C364.121 638.477 365.157 637.342 366.251 636.143C367.233 635.068 368.261 633.941 369.378 632.64C364.657 630.672 360.724 629.103 357.183 627.922ZM348.131 665.663C352.459 664.484 376.069 639.715 376.463 635.39C375.311 636.633 374.171 637.865 373.039 639.087C364.502 648.307 356.468 656.983 348.131 665.663ZM419.74 652.692C418.757 650.974 416.236 649.856 413.908 649.76C412.511 649.698 411.182 649.993 410.296 650.732C409.611 651.417 408.926 652.127 408.235 652.842C406.149 655.002 404.008 657.219 401.644 658.989C395.982 664.108 390.135 669.043 384.356 673.92C381.702 676.159 379.063 678.387 376.463 680.614L349.315 703.023L349.191 703.122C339.396 710.953 329.602 718.783 319.416 726.223C316.509 728.457 313.348 730.311 310.222 732.144C307.848 733.536 305.494 734.916 303.286 736.443C292.27 743.913 280.069 749.028 267.086 752.172C263.074 753.116 259.062 753.635 255.05 754.154C252.374 754.5 249.699 754.847 247.023 755.319C246.749 755.374 246.468 755.429 246.181 755.484C244.406 755.83 242.423 756.216 240.73 756.893C238.148 758.04 235.567 759.291 232.967 760.552C228.433 762.749 223.842 764.975 219.091 766.723C212.009 769.473 204.927 771.83 197.452 773.404C190.378 774.875 183.301 775.686 176.225 776.497C173.857 776.768 171.489 777.039 169.121 777.335C155.351 779.298 141.98 779.692 128.21 777.335C125.456 776.942 125.061 777.728 124.668 780.084C124.024 784.267 123.115 788.45 122.159 792.848C121.946 793.825 121.732 794.812 121.517 795.813C120.532 799.754 119.496 803.644 118.463 807.52C116.612 814.474 114.772 821.382 113.257 828.451C112.182 833.464 111.189 838.479 110.204 843.456C109.025 849.408 107.857 855.307 106.571 861.089C105.982 864.624 105.392 868.06 104.802 871.495C104.211 874.938 103.62 878.381 103.029 881.923C102.898 882.97 102.81 884.017 102.723 885.064C102.547 887.164 102.371 889.264 101.846 891.361C100.935 894.319 99.8944 897.144 98.8741 899.914C98.1311 901.931 97.3989 903.919 96.7357 905.907C94.3751 912.984 92.4064 919.671 97.1276 926.356C97.5194 926.748 97.5194 927.531 97.5194 928.315V928.324C97.4424 929.479 97.3805 930.633 97.3189 931.78C97.0657 936.499 96.818 941.115 95.5522 945.226C94.022 950.12 91.7776 954.78 89.5598 959.384C88.9265 960.699 88.2953 962.009 87.6836 963.319C85.323 967.644 84.9296 971.572 87.6836 976.29C90.4376 980.614 91.618 985.731 89.6508 990.842C88.6671 993.792 87.5853 996.839 86.5036 999.887C85.4222 1002.93 84.3409 1005.98 83.3575 1008.93L83.3372 1008.99C81.3768 1014.87 79.4164 1020.74 77.8479 1027.01C75.8807 1035.66 76.2741 1044.31 77.8479 1052.96C79.4216 1060.43 81.3888 1067.91 87.6836 1073.81C88.6438 1074.67 89.5804 1075.53 90.5108 1076.39C93.393 1079.05 96.2149 1081.65 99.4865 1084.03C102.634 1086.39 105.781 1088.74 109.322 1089.92C118.371 1092.28 127.417 1091.1 135.679 1086.78C145.908 1080.88 154.565 1073.02 160.86 1062.79C162.434 1060.43 163.616 1058.08 164.402 1055.72C165.976 1051 167.548 1045.88 168.729 1041.17C169.005 1040.06 169.378 1039.01 169.745 1037.97C170.425 1036.04 171.088 1034.17 171.088 1032.13C171.256 1030.28 171.209 1028.42 171.163 1026.57C171.1 1024.1 171.038 1021.62 171.487 1019.15L171.492 1019.12C172.277 1014.81 173.063 1010.49 176.989 1007.35C178.758 1005.98 180.33 1004.51 181.902 1003.03C183.478 1001.56 185.053 1000.08 186.825 998.706C191.153 995.56 191.94 991.629 190.759 986.911C189.579 982.193 188.403 977.078 193.518 973.541C197.452 970.788 199.416 966.852 200.203 962.528C201.147 958.129 201.965 953.73 202.783 949.331C204.013 942.72 205.243 936.109 206.896 929.499C208.863 922.028 211.218 914.951 214.365 907.874C216.255 903.066 218.37 898.333 220.481 893.611C223.204 887.52 225.919 881.444 228.135 875.243C230.96 867.904 233.176 860.362 235.366 852.908C236.227 849.979 237.083 847.064 237.971 844.18C238.671 841.66 239.173 839.09 239.67 836.54C240.568 831.93 241.454 827.389 243.481 823.338C245.419 818.494 248.952 814.445 252.55 810.321C253.332 809.424 254.118 808.523 254.892 807.609C257.059 805.203 259.666 803.093 262.356 800.917C264.061 799.537 265.799 798.131 267.478 796.606C271.019 793.46 274.566 789.523 277.714 785.985C279.436 784.264 281.064 782.451 282.735 780.59C284.5 778.625 286.312 776.607 288.333 774.588C286.414 774.062 284.649 773.692 282.971 773.34C280.864 772.899 278.893 772.485 276.922 771.828C274.56 771.04 272.991 767.897 274.171 766.323C274.958 765.538 276.924 765.157 278.497 765.541C280.728 765.7 282.894 765.988 285.047 766.275C288.211 766.696 291.349 767.114 294.626 767.114C306.483 767.496 317.596 764.533 329.05 761.48L330.035 761.217C334.996 759.912 339.959 758.258 344.922 756.604C347.437 755.766 349.951 754.928 352.465 754.136C354.039 753.752 356.393 753.348 357.967 754.136C359.147 754.529 360.727 757.279 360.334 758.067C359.546 759.641 357.973 760.832 356.399 761.216C353.273 762.353 350.147 763.079 346.872 763.839C345.613 764.132 344.332 764.429 343.021 764.757C340.725 765.383 338.43 766.033 336.132 766.684C325.434 769.713 314.689 772.756 303.678 773.404C302.401 773.404 301.383 773.667 300.204 773.971C299.93 774.041 299.648 774.114 299.352 774.186C301.712 775.761 303.676 776.552 306.037 776.552C308.201 776.945 310.463 777.14 312.726 777.335C314.989 777.529 317.251 777.724 319.415 778.117C330.038 780.1 340.657 781.663 351.673 780.483C354.631 780.154 357.865 780.917 360.914 781.636C361.515 781.777 362.109 781.917 362.692 782.047C363.479 782.047 364.267 783.228 364.267 784.016C364.267 784.803 363.479 785.983 362.692 785.983C361.119 786.77 359.148 787.557 357.575 787.557C345.772 788.339 334.367 788.34 322.957 785.59C320.597 785.196 317.843 784.798 315.089 784.414C315.089 784.612 314.988 784.811 314.888 785.009C314.789 785.205 314.69 785.399 314.69 785.59C315.276 785.983 315.863 786.472 316.449 786.962C317.044 787.457 317.638 787.953 318.232 788.349L331.219 796.604C331.878 797.264 332.262 798.477 332.601 799.547C332.666 799.754 332.73 799.956 332.794 800.147C332.402 800.278 332.01 800.451 331.618 800.625C330.829 800.974 330.04 801.323 329.251 801.323C326.497 800.541 324.135 799.364 321.774 798.183C320.213 797.403 318.651 796.56 317.065 795.704C314.655 794.404 312.189 793.073 309.58 791.886C309.58 792.536 309.699 793.186 309.806 793.77C309.894 794.247 309.974 794.68 309.974 795.034C311.942 802.898 311.941 810.761 310.367 819.017C308.794 828.061 307.612 837.106 306.825 846.15C306.431 852.025 306.431 858.287 306.431 864.164V864.234C306.504 865.029 306.55 865.837 306.596 866.651C306.801 870.268 307.013 874.005 309.582 877.213C315.09 883.504 320.987 889.007 328.462 893.331C328.855 893.725 329.254 894.128 329.254 894.512C329.254 895.299 329.254 896.879 328.86 897.262C328.073 897.661 326.497 898.045 325.709 898.045L325.593 898.001C322.484 896.835 319.374 895.668 316.266 894.114C316.221 894.291 316.177 894.462 316.134 894.63C315.792 895.952 315.522 896.997 315.872 898.045C317.052 903.942 315.082 908.275 310.754 912.206C304.066 918.497 301.71 927.147 299.743 935.797C297.383 946.02 297.381 956.242 302.102 965.678C303.676 968.824 305.253 971.571 307.22 974.326C308.205 975.507 309.165 976.738 310.125 977.968C313 981.653 315.876 985.338 319.415 987.695C327.283 993.2 341.442 995.168 350.098 988.877C351.618 987.793 353.261 986.946 354.825 986.139C356.093 985.485 357.309 984.858 358.366 984.153C358.988 983.739 359.615 983.324 360.244 982.908C365.577 979.38 371.055 975.755 375.279 971.182C381.18 964.498 386.688 957.028 391.016 949.557C394.95 942.48 397.707 934.612 400.068 927.141C401.243 922.83 401.243 918.128 401.243 913.426V913.379C399.676 909.858 399.676 905.946 399.676 901.647V901.583C398.429 902.522 397.429 902.968 396.675 903.303C396.478 903.391 396.297 903.472 396.133 903.552C392.986 906.698 389.049 907.879 385.114 908.666C383.147 909.052 381.18 909.434 379.213 909.05C377.661 908.828 375.985 908.603 374.324 908.38C373.039 908.208 371.762 908.037 370.56 907.869C370.21 907.815 369.863 907.763 369.517 907.712C364.807 907.009 360.506 906.366 357.574 901.971C357.05 901.447 356.877 900.579 356.704 899.708C356.617 899.271 356.53 898.833 356.398 898.439H360.726C361.195 898.439 361.664 898.86 362.132 899.282C362.45 899.567 362.767 899.852 363.085 900.007C370.166 903.151 378.032 903.544 385.507 901.188C388.272 900.359 390.65 898.56 393.048 896.746C394.063 895.978 395.082 895.208 396.134 894.508C396.635 894.107 397.136 893.654 397.644 893.195C399.128 891.852 400.668 890.46 402.428 890.174C406.269 889.583 408.555 887.224 410.788 884.918C411.529 884.154 412.264 883.396 413.047 882.71C415.43 880.567 417.236 877.844 419.076 875.069C420.274 873.263 421.487 871.435 422.883 869.73C430.751 859.901 434.292 848.106 436.653 836.31C440.981 815.078 443.346 793.452 443.346 771.433C443.346 758.457 443.343 745.874 442.163 732.898C440.982 720.316 440.194 708.133 444.521 695.944C444.915 694.764 444.525 693.19 443.738 692.403C440.785 687.485 437.833 682.469 434.88 677.453C431.931 672.443 428.982 667.433 426.033 662.521C425.049 660.751 423.967 659.177 422.885 657.604C421.804 656.032 420.723 654.46 419.74 652.692ZM432.218 655.925C431.465 655.77 430.712 655.615 429.968 655.443L429.183 656.228C435.084 665.664 440.986 675.494 446.887 685.717C450.429 678.246 452.783 671.955 446.488 665.664C445.702 665.14 445.266 664.266 444.83 663.392C444.611 662.955 444.392 662.517 444.13 662.123C441.104 657.755 436.643 656.836 432.218 655.925ZM507.078 683.354C510.029 682.567 512.983 682.279 515.885 682.328C518.786 682.375 521.639 682.768 524.393 683.359C525.31 683.588 525.96 684.083 526.655 684.613C527.151 684.991 527.671 685.387 528.327 685.715C527.932 686.502 527.933 686.904 527.933 687.288C525.179 687.682 522.427 688.076 519.673 688.863C518.7 689.002 517.776 689.19 516.867 689.375C515.202 689.714 513.586 690.043 511.804 690.043C509.837 690.043 507.476 689.651 505.903 688.47C503.935 687.291 504.718 684.141 507.078 683.354ZM494.992 710.428C508.23 703.078 520.791 696.104 535.564 696.534C536.551 696.582 537.543 696.633 538.551 696.729C540.518 696.729 542.486 697.517 544.453 698.304C544.943 698.549 545.281 699.249 545.656 700.028C545.883 700.499 546.123 700.998 546.42 701.442C546.246 701.558 546.063 701.683 545.873 701.813C544.776 702.564 543.435 703.482 542.093 703.809C540.519 704.065 538.944 703.98 537.37 703.895C536.582 703.852 535.795 703.809 535.008 703.809C522.812 704.202 511.802 708.919 501.966 715.604C499.606 717.178 495.277 716.386 494.49 714.029C494.203 712.876 494.548 711.717 494.753 711.029C494.828 710.779 494.884 710.591 494.884 710.488L494.992 710.428ZM146.306 708.914C145.913 708.126 144.734 707.339 143.947 707.339C135.685 708.519 131.748 713.636 136.863 721.501C139.617 725.826 138.828 730.542 135.287 734.079C133.32 736.045 131.353 738.013 129.386 740.369C127.025 743.515 127.422 744.691 130.569 746.659C138.044 751.375 146.302 754.135 155.351 754.922C156.563 755.016 157.775 755.132 158.992 755.247C162.912 755.62 166.885 755.997 171.088 755.704C175.809 755.311 180.536 754.134 185.258 752.954C188.405 751.773 191.549 750.598 195.877 749.024C195.166 748.668 194.696 748.312 194.323 748.029C193.87 747.686 193.557 747.45 193.126 747.45C192.385 747.18 191.633 746.911 190.875 746.64C187.204 745.327 183.401 743.966 180.14 742.335C165.976 734.471 154.175 723.462 146.306 708.914ZM152.991 809.162C153.484 808.874 153.955 808.763 154.398 808.778L154.398 808.765C155.726 808.823 156.832 810.152 157.717 811.923C162.438 824.898 172.271 833.548 184.074 841.412C184.074 836.693 183.286 833.151 180.532 830.008C180.41 829.846 180.284 829.684 180.157 829.52C179.055 828.103 177.898 826.614 178.956 824.501C180.137 822.149 181.715 821.353 183.682 822.534C191.157 826.466 198.631 830.398 205.713 834.329C207.286 835.116 208.858 836.686 210.039 838.26C210.432 839.047 210.824 840.223 210.431 841.01C210.431 841.807 209.25 842.191 208.463 842.191C207.939 842.06 207.371 841.972 206.803 841.885C205.668 841.71 204.532 841.535 203.745 841.01C200.865 839.44 197.983 837.521 195.102 835.602C193.654 834.638 192.207 833.674 190.759 832.754C190.366 831.967 189.582 831.564 188.008 831.18C188.249 832.144 188.527 833.035 188.786 833.862C189.371 835.736 189.856 837.287 189.583 838.652C188.807 843.824 191.264 847.636 193.709 851.43C194.982 853.405 196.252 855.374 197.06 857.528C197.141 857.77 197.222 857.996 197.299 858.211C197.598 859.043 197.844 859.73 197.844 860.667H197.822C196.639 860.667 194.692 860.667 193.91 859.885C187.615 854.38 180.923 848.481 175.022 842.583C169.907 837.865 164.406 832.758 159.684 827.647C156.537 823.715 153.783 818.994 151.816 814.276C151.029 813.098 152.205 809.944 152.991 809.162ZM316.265 906.687C316.364 906.593 316.561 906.562 316.811 906.592L316.811 906.585C317.566 906.662 318.825 907.18 319.415 907.468C320.99 908.517 322.521 909.698 324.052 910.878C327.11 913.236 330.169 915.595 333.577 916.906C341.052 920.05 349.311 923.194 357.967 920.837C360.721 920.05 362.688 921.619 363.868 923.586C365.049 925.55 364.268 927.518 362.301 929.092C355.219 935.382 346.954 937.744 337.512 936.957C332.397 936.17 327.281 935.382 322.166 935.382C319.018 935.382 318.624 933.415 318.624 931.059C318.624 929.096 321.383 927.133 323.35 927.92C324.867 928.255 326.383 928.809 327.899 929.362C329.922 930.101 331.945 930.839 333.969 931.059C336.575 931.348 339.394 930.996 342.27 930.637C343.302 930.508 344.341 930.378 345.38 930.277C345.137 930.034 345.194 929.79 345.274 929.454C345.323 929.246 345.38 929.003 345.38 928.702C343.413 928.112 341.544 927.424 339.675 926.737C337.806 926.049 335.937 925.361 333.969 924.771C327.674 922.805 322.561 919.658 317.84 914.94C316.666 913.767 315.885 911.814 315.102 909.857L315.089 909.826C314.696 909.044 315.478 907.474 316.265 906.687ZM126.243 972.35C127.276 970.632 128.607 968.938 130.769 969.034L130.769 968.991L130.815 968.998C131.11 969.044 131.418 969.092 131.745 969.183L142.372 971.54C145.52 972.13 148.568 972.72 151.616 973.311C154.665 973.901 157.713 974.491 160.86 975.081C161.571 975.318 162.14 975.841 162.738 976.39C163.133 976.752 163.541 977.127 164.011 977.438C163.224 978.619 162.039 980.188 161.252 980.188C158.105 980.572 154.962 980.572 152.208 980.188C149.441 979.598 146.773 978.906 144.105 978.215C141.462 977.53 138.82 976.845 136.079 976.257C135.295 975.874 134.117 975.874 133.33 975.874H133.32C132.533 976.661 132.144 977.064 132.144 977.448C133.251 977.922 134.357 978.46 135.488 979.009C137.173 979.827 138.914 980.673 140.797 981.379C144.117 982.746 147.533 984.111 150.949 985.476C154.416 986.861 157.884 988.247 161.252 989.634C165.58 991.6 167.156 995.534 168.337 999.465C168.73 1000.25 166.367 1002.61 165.186 1003.39C162.94 1004.52 160.343 1004.94 158.062 1005.31L157.717 1005.36C144.341 1007.72 132.143 1004.97 120.733 997.497C117.576 995.525 114.32 993.553 111.063 991.581C107.827 989.622 104.591 987.662 101.454 985.703C98.6999 984.13 98.3032 981.371 100.27 978.621C100.664 978.237 102.634 977.834 103.421 978.621C104.195 979.159 104.968 979.7 105.743 980.242C114.029 986.034 122.43 991.906 132.144 995.141C137.259 997.109 142.765 997.895 148.273 998.682C151.421 999.09 154.962 998.683 158.109 998.299C158.805 998.299 159.502 997.753 160.279 997.143C160.819 996.719 161.398 996.265 162.044 995.942C161.573 995.629 161.103 995.189 160.632 994.749C159.922 994.086 159.211 993.422 158.501 993.191C149.846 991.619 141.587 988.867 134.112 984.937C132.532 984.034 131.081 982.742 129.612 981.433C128.52 980.46 127.417 979.478 126.243 978.639C124.214 976.95 125.092 974.972 125.878 973.2C126.006 972.91 126.132 972.626 126.243 972.35Z" fill="white"/>
</svg>
